<svg xmlns="http://www.w3.org/2000/svg" width="24" height="24" viewBox="0 0 24 24">
    <path data-name="discord_ico" d="M7.575 3.387a1.81 1.81 0 0 0-.864.108 10.674 10.674 0 0 0-2.875 1.587l-.025.02-.023.02a4.4 4.4 0 0 0-.949 1.5 18.53 18.53 0 0 0-.864 2.328A21.562 21.562 0 0 0 1 15a1.317 1.317 0 0 0 .17.644 5.861 5.861 0 0 0 3.13 2.442 8.558 8.558 0 0 0 2.609.593c.018 0 .062.007.064.007a1.218 1.218 0 0 0 1.122-.648l.838-1.585a11.516 11.516 0 0 0 4.125-.014l.843 1.6a1.216 1.216 0 0 0 1.123.65l.059-.005a8.566 8.566 0 0 0 2.614-.595 5.862 5.862 0 0 0 3.124-2.44 1.308 1.308 0 0 0 .17-.649 21.5 21.5 0 0 0-.978-6.047 18.432 18.432 0 0 0-.87-2.336 4.463 4.463 0 0 0-.962-1.51l-.023-.02-.023-.02a10.528 10.528 0 0 0-2.857-1.571 1.818 1.818 0 0 0-1.677.2 1.773 1.773 0 0 0-.609 1.155H9A1.779 1.779 0 0 0 8.392 3.7a1.817 1.817 0 0 0-.817-.313zm-.215 1.8a1.49 1.49 0 0 0 1.477 1.482h4.314a1.494 1.494 0 0 0 1.479-1.477 9.149 9.149 0 0 1 2.327 1.265 5.438 5.438 0 0 1 .534.919 16.812 16.812 0 0 1 .781 2.1 20.193 20.193 0 0 1 .875 5.362 4.352 4.352 0 0 1-2.1 1.548 6.819 6.819 0 0 1-1.745.41l-.421-.8c.312-.092.622-.181.951-.293a.909.909 0 1 0-.582-1.722c-3.48 1.177-5.193 1.178-8.492.005a.908.908 0 1 0-.609 1.714c.331.118.644.213.958.309l-.415.786a6.823 6.823 0 0 1-1.745-.41 4.347 4.347 0 0 1-2.1-1.546 20.256 20.256 0 0 1 .867-5.359 16.911 16.911 0 0 1 .776-2.1 5.662 5.662 0 0 1 .524-.909 9.292 9.292 0 0 1 2.347-1.279zm.944 4.2c-.753 0-1.363.812-1.363 1.814s.61 1.814 1.363 1.814 1.363-.812 1.363-1.814c-.016-1.001-.606-1.91-1.367-1.81zm5.413.014c-.753 0-1.363.814-1.363 1.817s.61 1.817 1.363 1.817 1.363-.814 1.363-1.817-.61-1.817-1.363-1.817z" transform="translate(1.005 .395)" style="fill:#fff"/>
</svg>
