<svg xmlns="http://www.w3.org/2000/svg" width="20" height="22" viewBox="0 0 20 22">
    <path d="M5 3a1.128 1.128 0 0 0-1 1.222v3.667L2.072 13.78a1.449 1.449 0 0 0-.072.456v2.208h1v6.111A2.273 2.273 0 0 0 5 25h14a2.273 2.273 0 0 0 2-2.444v-6.112h1v-2.208a1.44 1.44 0 0 0-.072-.454L20 7.889V4.222A1.128 1.128 0 0 0 19 3zm2 2.444a1.128 1.128 0 0 1 1 1.223 1.128 1.128 0 0 1-1 1.222 1.128 1.128 0 0 1-1-1.222 1.128 1.128 0 0 1 1-1.223zm3 0a1.128 1.128 0 0 1 1 1.222 1.128 1.128 0 0 1-1 1.222 1.128 1.128 0 0 1-1-1.221 1.128 1.128 0 0 1 1-1.223zm-5 11h14v6.111H5z" transform="translate(-2 -3)" style="fill:#424b52"/>
</svg>
