<svg xmlns="http://www.w3.org/2000/svg" width="24" height="24" viewBox="0 0 24 24">
    <path data-name="reddit_ico" d="M13.938 3a1.642 1.642 0 0 0-1.107.443 2.71 2.71 0 0 0-.664 1.066 9.25 9.25 0 0 0-.429 2.934 12.074 12.074 0 0 0-5.646 1.521 2.447 2.447 0 0 0-3.4 3.515l.111.111a5.331 5.331 0 0 0-.374 1.924 6.321 6.321 0 0 0 2.906 5.065 11.834 11.834 0 0 0 6.836 2.02A11.834 11.834 0 0 0 19 19.578a6.321 6.321 0 0 0 2.906-5.065 5.331 5.331 0 0 0-.374-1.924l.111-.111a2.447 2.447 0 0 0-3.4-3.515 12.1 12.1 0 0 0-5.618-1.522A8.739 8.739 0 0 1 13 4.813a1.916 1.916 0 0 1 .443-.733.661.661 0 0 1 .5-.194.623.623 0 0 1 .457.18c.154.125.334.329.567.567a3.237 3.237 0 0 0 2.117 1 2.193 2.193 0 1 0 0-.872 2.1 2.1 0 0 1-1.484-.737 7.432 7.432 0 0 0-.637-.65A1.626 1.626 0 0 0 13.938 3zm5.314.886a1.328 1.328 0 1 1-1.328 1.328 1.322 1.322 0 0 1 1.328-1.328zm-7.085 4.428a10.99 10.99 0 0 1 6.324 1.854 5.417 5.417 0 0 1 2.532 4.345 5.417 5.417 0 0 1-2.532 4.345 10.99 10.99 0 0 1-6.324 1.854 10.99 10.99 0 0 1-6.324-1.854 5.417 5.417 0 0 1-2.532-4.345 5.417 5.417 0 0 1 2.532-4.345 10.99 10.99 0 0 1 6.324-1.854zm-7.749.858a1.531 1.531 0 0 1 .9.291A7.453 7.453 0 0 0 3.2 11.732a1.522 1.522 0 0 1 .111-2.09 1.558 1.558 0 0 1 1.107-.47zm15.5 0a1.558 1.558 0 0 1 1.107.471 1.522 1.522 0 0 1 .111 2.09 7.453 7.453 0 0 0-2.117-2.269 1.531 1.531 0 0 1 .897-.292zM8.624 11.414a1.771 1.771 0 1 0 1.776 1.771 1.777 1.777 0 0 0-1.776-1.771zm7.085 0a1.771 1.771 0 1 0 1.771 1.771 1.777 1.777 0 0 0-1.77-1.771zm-7.085.886a.886.886 0 1 1-.886.886.879.879 0 0 1 .886-.886zm7.085 0a.886.886 0 1 1-.886.886.879.879 0 0 1 .887-.886zm.512 4.359a.52.52 0 0 0-.387.263 3.1 3.1 0 0 1-.816.692 5.2 5.2 0 0 1-2.851.747 5.2 5.2 0 0 1-2.851-.747 3.1 3.1 0 0 1-.816-.692.438.438 0 1 0-.72.5 3.889 3.889 0 0 0 1.052.941 6.164 6.164 0 0 0 3.335.886 6.164 6.164 0 0 0 3.333-.889 3.889 3.889 0 0 0 1.052-.941.443.443 0 0 0-.332-.761z" transform="translate(.032 -1)" style="fill:#fff"/>
</svg>
