<svg xmlns="http://www.w3.org/2000/svg" width="24" height="24" viewBox="0 0 24 24">
    <path data-name="telegram_ico" d="M20.572 3.012a2.24 2.24 0 0 0-1.057.16c-.45.177-7.5 3.143-14.074 5.91L3.27 10a1.7 1.7 0 0 0 .012 3.293l3.666 1.469c.316.947 1.052 3.155 1.238 3.738.11.348.388 1.225 1.09 1.43a1.385 1.385 0 0 0 .447.074 1.507 1.507 0 0 0 .918-.326l2.33-1.971 2.83 2.617a2.2 2.2 0 0 0 1.461.676 1.976 1.976 0 0 0 1.854-1.584c.083-.427 2.813-14.129 2.813-14.127a1.824 1.824 0 0 0-.479-1.912 1.59 1.59 0 0 0-.878-.365zm-.662 2.16c-.377 1.89-2.432 12.206-2.744 13.693l-4.137-3.826-2.807 2.377.778-3.041s5.363-5.428 5.686-5.744c.26-.253.314-.342.314-.43a.181.181 0 0 0-.2-.2.923.923 0 0 0-.385.176c-1.143.713-6.012 3.486-8.408 4.85l-3.476-1.39 1.688-.709c4.299-1.81 11.955-5.034 13.691-5.756z" transform="translate(-.004 -.001)" style="fill:#fff"/>
</svg>
