<svg xmlns="http://www.w3.org/2000/svg" width="248" height="248" viewBox="0 0 248 248">
    <path data-name="Rectangle 32" style="fill:none" d="M0 0h248v248H0z"/>
    <path data-name="Path 1" d="M881.122 1600.966a10.05 10.05 0 0 1-3.146-1.215 2.822 2.822 0 0 1-1.324-1.2 12.887 12.887 0 0 1-1.652-4.373 17.027 17.027 0 0 1 .947-3.535c.449-1.045 1.373-1.8 3.3-2.685 1.8-.826 2.332-.85 4.555-.28 1.786.462 2.624.887 3.146 1.6a11.773 11.773 0 0 1 1.725 3.559c.279 1.361-.049 2.927-1.081 5.078-.425.9-.559 1.069-1.117 1.433a14.441 14.441 0 0 1-1.36.729 19.384 19.384 0 0 1-3.243 1.008c-.072-.01-.41-.059-.75-.119zm2.393-3.644a5.133 5.133 0 0 0 1.2-3.851 3.35 3.35 0 0 0-2.029-2.818c-1.531-.571-2.3-.134-3.146 1.774a4.239 4.239 0 0 0-.036 3.012c.583 1.943.935 2.259 2.575 2.259 1.047.002 1.096-.012 1.436-.376z" transform="translate(-770.281 -1379.585)" style="fill:#fff"/>
    <path data-name="Path 2" d="M729.8 1587.58a27.112 27.112 0 0 1-5.187-1.579 3.488 3.488 0 0 1-1.895-2.369c-.838-2.648-.887-3.656-.279-4.992a12.447 12.447 0 0 1 1.8-3 3.613 3.613 0 0 1 .935-.632 15.7 15.7 0 0 1 3.923-.911 3.729 3.729 0 0 1 1.883.206 16.759 16.759 0 0 1 3.268 1.518 7.042 7.042 0 0 1 1.421 2.721l.024.316-1.433.1c-1.4.1-1.47.1-2.065-.207a10.02 10.02 0 0 1-1.373-.862c-1.275-.935-1.725-.862-3.146.51a6.156 6.156 0 0 0-1.883 2.855 14.71 14.71 0 0 0 .547 2.672c.1.255.219.292 1.676.656 1.409.34 1.786.365 2.308.1s1.178-.9 1.178-1.166c0-.292-.267-.413-1.336-.583-1.373-.231-1.336-.182-1.13-1.275.243-1.3.34-1.518.68-1.518.425 0 5.187.96 5.454 1.105s.279.462-.024 2.259a12.446 12.446 0 0 1-.765 3.292 25.115 25.115 0 0 1-3.911.863c-.194-.012-.5-.049-.668-.073z" transform="translate(-635.892 -1367.973)" style="fill:#fff"/>
    <path data-name="Path 3" d="M1034.836 1582.289c-1.13-.3-1.883-.911-3-2.478-1.482-2.065-1.664-2.478-1.713-3.948a5.2 5.2 0 0 1 2.332-5.065c1.871-1.494 2.648-1.8 4.616-1.8a7.24 7.24 0 0 1 3.535.656 16.137 16.137 0 0 1 2.393 2.964 3.792 3.792 0 0 1 .474 1.931 14.524 14.524 0 0 1-.316 4.507 8.083 8.083 0 0 1-2.854 2.624 9.1 9.1 0 0 1-1.531.607 10.718 10.718 0 0 1-3.936.002zm3.146-3.474c1.36-.425 1.664-.753 1.786-2.029a5.275 5.275 0 0 0-1.239-3.729 2.066 2.066 0 0 0-2.187-.838c-1.081.109-1.336.279-1.8 1.227-.668 1.373-.571 2.454.425 4.446.707 1.397 1.083 1.518 3.015.923z" transform="translate(-906.551 -1363.52)" style="fill:#fff"/>
    <path data-name="Path 4" d="M1167.93 1522.982c-.291-.376-4.179-8.734-5.138-11.078l-.292-.717.292-.194a17.936 17.936 0 0 1 2.757-1.227c.571-.061.911.1 3.7 1.774 1.628.984 3.1 1.871 3.268 1.992.425.292.85.413.85.231 0-.073-.522-1.288-1.166-2.709-1.555-3.413-1.494-3.17-.875-3.753a6.75 6.75 0 0 1 2.49-1.3c.3 0 .583.535 2.466 4.677 2.417 5.284 3.158 6.985 3.158 7.167a8.094 8.094 0 0 1-2.575 1.4l-.68.28-.777-.4c-.413-.219-2.041-1.154-3.6-2.089a22.78 22.78 0 0 0-2.988-1.64c-.133.061.024.535.741 2.114 1.555 3.474 1.749 3.96 1.676 4.13a15.045 15.045 0 0 1-3.037 1.494.484.484 0 0 1-.28-.146z" transform="translate(-1022.858 -1308.172)" style="fill:#fff"/>
    <path data-name="Path 5" d="M500.771 1511.925a19.449 19.449 0 0 1-2.83-1.579.5.5 0 0 1-.134-.389 3.681 3.681 0 0 0 .049-1.932 17.939 17.939 0 0 0-3.8-2.114 2.841 2.841 0 0 0-.862.607c-.7.632-.923.7-1.482.462a12.612 12.612 0 0 1-2.709-1.616c0-.316 2.138-2.259 7.471-6.79a29 29 0 0 1 2.964-2.344c.34-.085 1.385.4 2.891 1.336.972.607 1.008.644 1.008 1.093 0 .547-1.749 12.937-1.883 13.3-.061.182-.121.17-.68-.036zm-2.527-8.406a5.155 5.155 0 0 0 .9-1.13 4.784 4.784 0 0 0 .5-1.919 15.333 15.333 0 0 0-3.28 3.183c.085.219.522.413.935.425.241.012.508-.146.945-.559z" transform="translate(-431.169 -1299.581)" style="fill:#fff"/>
    <path data-name="Path 6" d="M1309.333 1461.928a6.3 6.3 0 0 1-2.138-1.19l-.231-.255.68-.632c.364-.34.984-.862 1.373-1.154l.7-.547.8.207a2.671 2.671 0 0 0 2.15-.049c.765-.364 1.3-1 1.19-1.421a1.17 1.17 0 0 0-.729-.948 4.767 4.767 0 0 0-2.526.449 4.45 4.45 0 0 1-2.369.4 6.111 6.111 0 0 1-3.51-.814 4.315 4.315 0 0 1-.911-2.235c-.206-1.081-.17-1.2.583-2.187 1.373-1.822 2.794-2.5 6.268-3.013 1.215-.182 1.276-.182 1.579.036a.873.873 0 0 1 .34.692c.049.535-.194.838-1.373 1.725l-.729.547-1.057-.085a2.23 2.23 0 0 0-2.15.62.738.738 0 0 0-.182 1.118c.328.474.9.376 3.839-.693a4.94 4.94 0 0 1 2.867-.073 3.949 3.949 0 0 1 3.231 3.377c.364 1.47.073 2.3-1.312 3.656a8.222 8.222 0 0 1-3.377 2.089 4.867 4.867 0 0 1-3.006.38z" transform="translate(-1146.915 -1257.578)" style="fill:#fff"/>
    <path data-name="Path 7" d="M336.161 393.061a80.559 80.559 0 0 1-70.028-50.8 81.951 81.951 0 0 1-4.8-41.033A80.475 80.475 0 0 1 405.364 264.3a10.951 10.951 0 0 1 1.178 1.725c-.146.231-3.11 1.433-8.673 3.5-4.324 1.6-6.875 2.648-9.268 3.8l-1.786.875-.462-.547c-.413-.486-1.215-1.36-2.7-2.94-.79-.838-3.6-3.377-4.9-4.434a59.731 59.731 0 0 0-29.882-12.9 53.189 53.189 0 0 0-9.037-.449 51.6 51.6 0 0 0-8.7.765l-2.089.328-4.009-.5c-7.106-.9-12-1.312-13.921-1.19-3.863.243-14.625 3.013-17.65 4.531a12.63 12.63 0 0 0-3.17 2.223c-.462.437-1.3 1.2-1.846 1.676-1.446 1.288-1.968 2.478-1.385 3.195.377.474.947.364 2.952-.534 3.438-1.567 6.317-2.065 7.713-1.336.8.425.62.96-.462 1.312a2.253 2.253 0 0 0-1.458 1.154c-.547.96-1.676 1.446-4.725 2a22.97 22.97 0 0 0-6.863 2.1 12.629 12.629 0 0 0-3.413 2.357 7.608 7.608 0 0 0-2.053 2.927 11.01 11.01 0 0 0 .571 8l.486 1.045-.729 1.02a26.7 26.7 0 0 0-4.324 9.025 31.412 31.412 0 0 0-.8 4.8c-.134 1.166-.377 3.17-.547 4.434-.462 3.559-.4 4.883.231 4.64.547-.206 1.98-2.782 3.656-6.511.9-2 1.166-2.442 1.518-2.442.449 0 .547.328.62 2.235a5.371 5.371 0 0 0 .413 2.6 3.077 3.077 0 0 0 1.871 1.786 1.445 1.445 0 0 1 .7.389 3.459 3.459 0 0 1-.243 1.118c-.765 2.272-.862 3.134-.862 7.24a49.14 49.14 0 0 0 .85 10.009 62.722 62.722 0 0 0 5.636 16.472 52.241 52.241 0 0 0 5.527 8.916 61.289 61.289 0 0 0 19.946 16.885 59.529 59.529 0 0 0 69.883-10.556 66.862 66.862 0 0 0 7.6-9.2 4.826 4.826 0 0 1 .814-1.02c.085 0 .777-.036 1.543-.073 3.243-.146 3.608-.109 4.324.474a3.486 3.486 0 0 0 2.6.85 5.363 5.363 0 0 0 1.543-.194 17.621 17.621 0 0 1 1.931-.437c.777-.146 1.773-.377 2.211-.51a7.038 7.038 0 0 1 1.846-.267 3.091 3.091 0 0 0 1.421-.231c.559-.3 1.033-.255 1.895.17a4.353 4.353 0 0 0 3.826.024c.352-.146-1.664 4.191-3.425 7.361a80.746 80.746 0 0 1-63.056 40.9c-2.272.219-9.961.328-12.086.158zm11.3-3.814a47.27 47.27 0 0 0 6.438-.814c0-.061-.073-.121-.146-.158s-.571-.158-1.069-.3a15.051 15.051 0 0 1-3-1.3 7.225 7.225 0 0 1 1.008.158c1.008.194 1.688.146 1.786-.121.073-.17-.255-.923-.4-.923a.536.536 0 0 0-.243.182c-.34.4-2.053.073-3.547-.68a4.192 4.192 0 0 1-.7-.4 2.773 2.773 0 0 1 .632.121 4.05 4.05 0 0 0 2.15.036c.571-.206.389-.4-.425-.486a7.908 7.908 0 0 1-1.773-.522 7.747 7.747 0 0 0-1.239-.437.346.346 0 0 1-.243-.1 11.448 11.448 0 0 1 3.426.4 14.541 14.541 0 0 1 2.065.729c1.02.486 1 .474 1 .279 0-.243-.9-.923-1.81-1.373a13.892 13.892 0 0 0-3.292-1.008l-.547-.121.522-.012a2.744 2.744 0 0 0 1.907-.984 2.675 2.675 0 0 1 1.883-.972 1.384 1.384 0 0 1 1.518 1.19c.109.389.279.328.364-.146.194-.984-.79-1.7-2.32-1.7a3.406 3.406 0 0 0-2.065.6 4.042 4.042 0 0 1-2.5.644c-1.263.049-1.312.036-1.312-.206 0-.207.073-.255.377-.255a1.3 1.3 0 0 0 1.081-.972 2.141 2.141 0 0 0-1.968-1.8c-.717-.073-.765.109-.1.377.547.219.8.644.547.923a2.3 2.3 0 0 1-2.138-.049c-4.057-1.713-5.673-1.992-7.75-1.336-1.142.364-1.518.34-2.126-.121s-.85-.377-.547.207c.158.292-.012.219-.462-.182-.158-.134-.3-.219-.352-.182-.109.121.182 1.02.437 1.348a1.329 1.329 0 0 1 .243.4 2.049 2.049 0 0 1-.486.547c-.34.3-.486.547-.486.765 0 .474-.267.923-1.154 1.919a3.5 3.5 0 0 0-.79 1.142c0 .352.838 1.093 1.421 1.251.8.231 1.239.17 1.591-.206a5.774 5.774 0 0 1 2.757-1 2.411 2.411 0 0 0 1.118-.389c.255-.231.292-.243.814-.061 1.3.449 1.956 1.409 2.442 3.632a6.678 6.678 0 0 0 .875 2.6 35.306 35.306 0 0 0 6.6-.134zm-15.791-8.795a.7.7 0 0 1 .194-.5c.377-.328.425-.559.158-.911-.146-.17-.34-.292-.425-.255s-.17-.012-.17-.109-.146-.267-.328-.389a5.764 5.764 0 0 1-1.166-.972.771.771 0 0 0-.4-.279.313.313 0 0 1-.219-.182c-.036-.1-.121-.182-.194-.182a1.435 1.435 0 0 1-.51-.352c-.474-.437-.923-.692-1.033-.571-.134.121.352.947.6 1.02.121.024.219.121.219.194a.592.592 0 0 0 .219.328 7.512 7.512 0 0 1 .51.583c.17.219.4.5.522.632a.812.812 0 0 1 .207.389c0 .17.231.449.377.449.049 0 .121-.1.146-.207.036-.134.061-.085.073.121.012.449.219.814.437.814a.166.166 0 0 1 .182.146c0 .17.364.583.51.583.039-.002.088-.156.088-.35zm-27.77-4.774 1.081-1.579-.34-.7-.328-.692-.862-.073a4.258 4.258 0 0 0-.9-.036 2.588 2.588 0 0 0 .243.7l.3.668-.571.826-.559.814-.607-.073a11.941 11.941 0 0 0-.984-.073c-.34 0-.4-.073-.8-.9l-.437-.911.534-.79c.535-.8.547-.8 1.118-.8.316 0 1.008.049 1.543.109s1.6.158 2.381.194l1.409.1 1.057-1.531a15.52 15.52 0 0 0 1.045-1.64c0-.061-.352-.85-.79-1.761-.887-1.871-.656-1.713-2.612-1.846-.571-.036-1.251-.1-1.531-.134-.462-.061-.51-.049-.8.4-.182.255-.668.972-1.105 1.6l-.79 1.13.3.7.3.7.85.085a2.938 2.938 0 0 0 .923 0 1.264 1.264 0 0 0-.194-.607 3.513 3.513 0 0 1-.267-.668 4.533 4.533 0 0 1 .522-.923c.5-.765.522-.79.935-.729a7.826 7.826 0 0 0 1.008.073h.583l.425.935.425.935-.522.765-.522.765h-.607c-.328 0-1.664-.085-2.952-.194-2.284-.206-2.344-.194-2.514.024-.1.121-.583.838-1.093 1.579l-.923 1.336.8 1.689c.437.935.826 1.725.862 1.761.061.061 2.66.316 3.511.34.34.012.449-.109 1.445-1.579zm82.37-.632a10.243 10.243 0 0 0 1.154-1.057c0-.049-.146-.109-.328-.134-.267-.024-.814-.607-2.733-2.879l-2.393-2.842.656-.717c1.19-1.275 1.664-2.138 1.4-2.466-.219-.255-.449-.231-1.312.182-1.105.522-1.846 1.057-1.773 1.275.109.255.243.231.814-.17a6.751 6.751 0 0 1 1.664-.862c.437 0-1.2 1.895-2.782 3.207-1.482 1.227-3.535 2.49-3.535 2.162a5.048 5.048 0 0 1 1.057-1.433c.571-.656.62-.765.462-.9-.121-.1-.231-.109-.292-.049-1.275 1.36-1.895 2.332-1.773 2.733.158.486 1.057.207 2.624-.8.887-.571.984-.583 1.385-.073.134.17 1.19 1.421 2.332 2.782 1.81 2.15 2.089 2.527 2.016 2.782-.1.437.024.364 1.36-.741zm-10.179-5.782c-.049-.182.17-.437.96-1.105l1.008-.862.352.413c.194.219.486.559.656.753l.3.352.862-.717a3.986 3.986 0 0 0 .875-.838 3.584 3.584 0 0 0-.547-.79 4.221 4.221 0 0 1-.547-.753 8.676 8.676 0 0 1 .96-.875c.814-.68 1.02-.8 1.275-.729.17.036.316.036.316-.012a14.772 14.772 0 0 0-1.846-2.126c-.073 0-.1.109-.061.243.049.182-.522.729-2.9 2.733-2.563 2.162-3 2.49-3.268 2.417-.17-.036-.3-.024-.3.036a10.961 10.961 0 0 0 1.846 2.1c.068.003.094-.104.057-.24zm-98.562-25.3a9.123 9.123 0 0 0 3.158-1.919 3.628 3.628 0 0 0 1.057-4.009 45.077 45.077 0 0 0-2.587-5.381c-.158-.219-.255-.182-2.077.765-2.077 1.081-2.223 1.105-2.733.486-.267-.328-.292-.34-.632-.158-.4.194-.4.219-.219.547a1.1 1.1 0 0 1 .049.607c-.073.328-.267.462-1.956 1.3a8.968 8.968 0 0 0-1.871 1.081 43.993 43.993 0 0 0 2.879 5.381 3.6 3.6 0 0 0 1.36 1.19 2.876 2.876 0 0 0 1.773.389 4.781 4.781 0 0 0 1.8-.279zm96.533-89.209a148.83 148.83 0 0 1 3.146-1.494l.9-.413-.073-2.259a117.139 117.139 0 0 1-.085-3.729 6.52 6.52 0 0 0-.085-1.494 3.194 3.194 0 0 0-.547.79l-.462.777v3.231l-.425-.875a4.989 4.989 0 0 0-.474-.887 2.751 2.751 0 0 0-.364.534l-.316.534.547 1.166.534 1.166h-2.528l-.316.449c-.486.729-.437.79.6.741a2.323 2.323 0 0 1 .85.036 14.626 14.626 0 0 1-1.409.717c-1.348.62-1.385.644-1.834 1.385a6.355 6.355 0 0 0-.449.838c-.005.121.311-.024 2.789-1.215zm-2.879.073.449-.729.012-1.664.012-1.664.413.9c.449.96.534.984.935.231l.219-.413-.5-1.069a9.964 9.964 0 0 1-.486-1.178 3.658 3.658 0 0 1 1.251-.109h1.239l.328-.522.328-.51-1.045-.036-1.045-.036 1.567-.765c1.531-.753 1.579-.79 1.968-1.458a1.994 1.994 0 0 0 .34-.765c-.073-.073-.826.267-4.567 2.065l-2.126 1.02.024.6c0 .328.012 2 .024 3.729a24.958 24.958 0 0 0 .109 3.122 3.106 3.106 0 0 0 .55-.751zm-30.793-6.632.036-1.008h.838v2.077l.583-.036.571-.036.036-1.045.036-1.045.753-.085a2.809 2.809 0 0 0 2.83-2.563 2.016 2.016 0 0 0-1.02-2.114l-.534-.279.3-.328a2.16 2.16 0 0 0 .121-2.685 3.046 3.046 0 0 0-1.616-.911c-.887-.17-.838-.109-.875-1.251l-.036-1.057-.571-.036-.583-.036v.862c0 1.008-.134 1.336-.547 1.336-.292 0-.292-.024-.328-1.057l-.036-1.069h-1.336l-.036 1.069-.036 1.057h-.96c-1.288 0-1.336.024-1.336.741v.6h.413a2.369 2.369 0 0 1 .741.121l.3.121-.024 2.94-.036 2.952-.607.061c-.559.061-.607.085-.68.425a5.271 5.271 0 0 0-.1.765l-.012.389h2.308v1.008a4.151 4.151 0 0 0 .085 1.105 1.647 1.647 0 0 0 .7.049l.607-.036z" transform="translate(-230.47 -189.05)" style="fill:#fff"/>
    <path data-name="Path 8" d="M846.368 1444.307a20.242 20.242 0 0 1-.449-1.774c-.437-2.053-1.142-3.207-2.308-3.79-.9-.462-1.4-.5-1.761-.158a2.289 2.289 0 0 1-1.19.437 5.5 5.5 0 0 0-2.782 1.02l-.328.352-.607-.194a2.479 2.479 0 0 1-.862-.486l-.279-.292.862-1a3.541 3.541 0 0 0 1.105-2.029c0-.085.194-.292.425-.474.474-.352.632-.753.449-1.105-.207-.364.17-.522.85-.377a1.7 1.7 0 0 0 1.239-.133 3.581 3.581 0 0 1 2.587-.012c.838.377 1.433.935 2.891 2.672 3.207 3.838 5.551 5.576 9.171 6.766l1.385.462-.6.085c-1.215.17-5.15.449-7.349.535l-2.247.073zm-6.644-7.944a1.547 1.547 0 0 0 .753-.534l.316-.4-.571.049c-.583.061-1.118.462-1.118.838-.004.205.049.205.62.047z" transform="translate(-735.842 -1244.973)" style="fill:#fff"/>
    <path data-name="Path 9" d="M360.824 1091.052a6.308 6.308 0 0 1-1.482-2.077c-.243-.583-.024-.9.96-1.4 1.324-.668 1.555-.607 2.15.559a4.223 4.223 0 0 0 .486.838 2.456 2.456 0 0 0 .413-.182l.352-.182-.413-.765a3.818 3.818 0 0 1-.425-1.02c0-.413.413-.8 1.324-1.239.7-.352.923-.4 1.19-.3.51.17 1.02 1.288 1.105 2.357a1.757 1.757 0 0 1-.255 1.36 5.07 5.07 0 0 1-2.357 1.773 3.5 3.5 0 0 1-3.048.278z" transform="translate(-317.18 -938.521)" style="fill:#fff"/>
    <path data-name="Path 10" d="M918 323.1v-1.3l1.069.049c1.336.061 1.846.316 2.016.984.231.887-.462 1.36-2.2 1.506l-.887.073z" transform="translate(-808.057 -267.819)" style="fill:#fff"/>
    <path data-name="Path 11" d="m917.937 293.642.036-1.142.79.036c1.312.061 1.786.425 1.676 1.3-.061.547-.547.814-1.616.887l-.923.061z" transform="translate(-807.97 -242.078)" style="fill:#fff"/>
    <path data-name="Path 12" d="M396.754 1451.514a20.868 20.868 0 0 1-1.834-1.02 7.583 7.583 0 0 1-1.919-2.612l-.4-.777.729-1.567c.6-1.263.777-1.555.984-1.542a14.829 14.829 0 0 1 2.952 1.688c.109.134.085.3-.109.741-.364.826-.328 1.215.158 1.7a1.412 1.412 0 0 0 .607.413c.583 0 1.421-.693 2.575-2.126a51.613 51.613 0 0 1 4.349-5.09c.328-.121.522-.012 2.016 1.19 1.057.85 1.093.9 1 1.154a61.406 61.406 0 0 1-5.891 7.2 10.877 10.877 0 0 1-1.446.9 2.746 2.746 0 0 1-1.64.4 3.667 3.667 0 0 1-2.126-.656z" transform="translate(-346.478 -1251.318)" style="fill:#fff"/>
    <path data-name="Path 13" d="M285.461 1321.763c-.9-1.105-1.105-1.433-1.105-1.761s.607-2.782 1.64-6.584c.328-1.2.364-1.494.206-1.494-.061 0-1.215.935-2.563 2.065a24.123 24.123 0 0 1-2.66 2.065 1.007 1.007 0 0 1-.522-.279 24.311 24.311 0 0 1-1.8-2.053c-.134-.182-.073-.292.437-.838.474-.522 3.753-3.34 8.394-7.24a2.658 2.658 0 0 1 1.057-.644c.219 0 .534.279 1.239 1.105a8.23 8.23 0 0 1 1.057 1.445c.121.4-.073 1.239-1.154 5.163-.741 2.66-.826 3.1-.559 3.1a21.332 21.332 0 0 0 2.223-1.713c2.612-2.174 2.94-2.417 3.146-2.344a18.806 18.806 0 0 1 2.186 2.624c.085.194.049.292-.182.486-.17.134-.571.474-.911.765-.814.692-5.1 4.312-6.924 5.843-.8.668-1.6 1.312-1.773 1.433l-.328.206z" transform="translate(-246.324 -1131.588)" style="fill:#fff"/>
    <path data-name="Path 14" d="M1465.682 1302.188a14.025 14.025 0 0 1-3.3-1.178c-.911-.607-2.49-3.134-3.146-5.041a1.862 1.862 0 0 1-.073-1.336 9.939 9.939 0 0 1 2.976-4.81c1.773-1.543 2.405-1.786 4.215-1.579.789.085.911.134.947.352a11.408 11.408 0 0 1-1.652 3.255c-.109.024-.437.085-.717.134a3.1 3.1 0 0 0-1.931 1.458c-.522.777-.51 1.093.061 2.308a4.744 4.744 0 0 0 3.34 2.733 2.392 2.392 0 0 0 3.122-1.008c.862-1.19.923-3.122.1-3.122-.122 0-.425.255-.68.571s-.607.729-.777.923l-.316.364-.656-.377c-.911-.522-1.2-.814-1.2-1.239 0-.5 3.158-4.737 3.535-4.737.292 0 .5.134 2.5 1.628 1.786 1.324 1.895 1.506 1.725 2.7-.328 2.356-1.045 3.632-3.535 6.183-2.194 2.255-2.473 2.364-4.538 1.818z" transform="translate(-1283.403 -1116.811)" style="fill:#fff"/>
    <path data-name="Path 15" d="M453.736 526.9c-.231-.024-1-.109-1.7-.182a57.938 57.938 0 0 1-28.728-11.2 58 58 0 0 1-22.472-36.648l-.3-1.883.243-.34.255-.34-.255-.34c-.316-.449-.3-.5.049-.5a.788.788 0 0 1 .534.3c.292.364.462.389.547.049.049-.194.146-.243.522-.207.449.036.474.012.668-.51.292-.777.449-.753.5.085.049.875.328 1.02.717.352.292-.5.644-.607.534-.158a.428.428 0 0 0 .121.449c.182.146.231.146.364-.049s.121-.328-.1-.96a3.5 3.5 0 0 0-.96-1.458l-.692-.7.243-.4c.219-.364.219-.8 0-.8a.894.894 0 0 1-.3-.158c-.219-.158-.219-.182-.012-.571s.206-.413-.109-.644c-.267-.194-.316-.3-.255-.583.073-.316.036-.377-.292-.486-.3-.109-.364-.206-.4-.571-.036-.389-.085-.449-.364-.486-.4-.049-.425-.158-.1-.449.352-.316.279-.729-.121-.717a2.789 2.789 0 0 0-.571.109c-.425.134-.352-.182.109-.571.389-.316.389-.328.17-.571s-.219-.267-.036-.474c.243-.267.085-.571-.34-.68-.17-.049-.3-.158-.3-.255 0-.134.158-.182.607-.182.8 0 .935-.267.389-.717-.5-.4-.486-.5.012-.5s.692-.182.692-.729a1.366 1.366 0 0 1 .182-.68c.267-.352.219-.644-.134-.8s-.3-.182-.923.656c-.158.231-.243.255-.425.146s-.219-.292-.207-.972a12.3 12.3 0 0 1 1.567-4.737 14.891 14.891 0 0 0 .79-1.737c0-.194-.219-.17-1.19.158a7.644 7.644 0 0 0-3.316 2.053 5.839 5.839 0 0 1-1.057.935c-.243 0-.17-.984.207-2.648a6.667 6.667 0 0 1 1.3-3.146c.364-.449.51-.765.364-.765a8.643 8.643 0 0 0-1.7 1.081 34.94 34.94 0 0 1-.984.765l-.279.219.17-.79a10.545 10.545 0 0 1 2.842-5.515 6.332 6.332 0 0 0 .729-.777 4.348 4.348 0 0 0-1.907.4 12.1 12.1 0 0 0-5.138 3.535c-.267.34-.486.534-.486.437s.146-.741.316-1.433a26.188 26.188 0 0 1 8.685-13.2 37.288 37.288 0 0 1 5.43-3.608 9.149 9.149 0 0 0 1.361-.814 6.112 6.112 0 0 0-2.551-.267 7.674 7.674 0 0 0-3.936.935 8.354 8.354 0 0 0-2.5 2.32c-.207.571-.364.231-.364-.814a2.688 2.688 0 0 1 1.02-2.466c.3-.255.559-.547.559-.656a.523.523 0 0 0-.583-.486 3.9 3.9 0 0 0-2.041 1.215 7.365 7.365 0 0 0-.607 3.984 4.281 4.281 0 0 1-.049 1.482 8.937 8.937 0 0 1-.875-3.085 5 5 0 0 1 1.324-4.822c1.919-2.065 5.345-3.583 9.45-4.179a72.431 72.431 0 0 1 9.171-.364 36.634 36.634 0 0 0 6.851-.364 7.549 7.549 0 0 0 3.365-2c1.057-1.045 1.288-1.555.862-1.968a1.542 1.542 0 0 0-.644-.328 35.887 35.887 0 0 0-7.191.96c-.547.134-1.312.279-1.688.328-.607.061-.717.036-.777-.146-.134-.34.364-.656 2.211-1.445a55.733 55.733 0 0 1 7.094-2.381 43.844 43.844 0 0 1 5.1-.109c2.369.024 4.385 0 4.47-.049.243-.158.17-.449-.146-.571-.158-.061-1.7-.316-3.426-.571a31.954 31.954 0 0 0-6.912-.449 54.356 54.356 0 0 0-6.256.267c-5.746.62-7.628.96-10.726 1.968-1.215.4-2.223.729-2.235.729-.328 0 1.13-1.579 2.211-2.393 1.579-1.19 3.5-1.919 8.746-3.316 5.126-1.373 8.211-1.944 10.5-1.944a198.528 198.528 0 0 1 20.662 2.308c4.494.8 9.693 2.636 16.824 5.952 3.547 1.652 7.4 4.239 7.968 5.345a9.93 9.93 0 0 1 .486 1.786 6.38 6.38 0 0 0 .425 1.579c.158.206.182.206.4-.049a3.526 3.526 0 0 0 .377-1.506c.243-1.992 0-2.9-1.446-5.515a7.12 7.12 0 0 0-3.134-3.146c-1.3-.8-1.7-1.166-1.093-1a22.789 22.789 0 0 1 4.677 1.628 22.264 22.264 0 0 1 5.369 5.223c.292.547.3.644.3 2.879 0 1.275-.073 3.049-.17 3.948a6.464 6.464 0 0 0-.024 2.162c.194.717.413.644 1.178-.389a8.244 8.244 0 0 0 1.834-4.689 6.03 6.03 0 0 0-.51-3.183c-.182-.377-.243-.583-.146-.583a7.857 7.857 0 0 1 2.332 1.7 5.653 5.653 0 0 1 .34 1.178c.182.984.413 1.19.862.777a2.71 2.71 0 0 0 .073-3.013 10.835 10.835 0 0 0-3.3-2.6c-.79-.4-1.166-.656-1.069-.717a1.124 1.124 0 0 1 .6.024c2.855.741 5.065 2.089 5.806 3.547a3.546 3.546 0 0 1 .377 1.664c.061 1.178-.085 1.871-1 4.652a12.038 12.038 0 0 0-.559 2.065 2.4 2.4 0 0 0 .948 1.7 9.291 9.291 0 0 0 2.539.449c3.51.377 4.531.632 5.235 1.36a4.871 4.871 0 0 1 .753 3.948c-.182 1.081-.364 1.239-.364.328a6.5 6.5 0 0 0-.644-2.757 1.99 1.99 0 0 0-1.518-.826c-.644 0-.632.316.012.875a2.1 2.1 0 0 1 .814 1.834v.474l-.692-.62a4.515 4.515 0 0 0-3.207-1.2 5.412 5.412 0 0 0-2.1.219c-.984.292-1.13.437-.583.559 2.259.486 5.406 1.883 6 2.672a18.872 18.872 0 0 1 1.518 4.531 12.34 12.34 0 0 1-.449 3.4c-.061.109-.122-.134-.182-.668a5.227 5.227 0 0 0-1.057-3.1 5.9 5.9 0 0 0-4.252-2.842 3.678 3.678 0 0 0-2.721-.049 2.684 2.684 0 0 0-2.1 2.357 11.98 11.98 0 0 0-.328 2.357 10.012 10.012 0 0 1-.1 1.312 2.866 2.866 0 0 1-.547-.619 9.965 9.965 0 0 0-5.333-3.438 7.327 7.327 0 0 0-9.45 5.308l-.267.911-.146-.364a3 3 0 0 1 .049-2.357 9.241 9.241 0 0 1 3.79-4.458 8.8 8.8 0 0 1 6.96-.656c1.166.292 1.105.292 1.105.012a.827.827 0 0 0-.328-.5 38.147 38.147 0 0 0-4.081-2.32c-1-.4-1.288-.316-2.332.644a9.184 9.184 0 0 1-1.19.85 9.325 9.325 0 0 0-4.519 5.539c-.182.474-.377.85-.425.814a4.41 4.41 0 0 1-.5-.753 21.479 21.479 0 0 0-3.231-4.045 16.754 16.754 0 0 0-8.3-4.215 15.622 15.622 0 0 0-5.685.061c-5.284 1.433-8.867 6.2-9.208 12.232a18.729 18.729 0 0 0 4.713 12.463c.474.522.96 1.093 1.081 1.275a1.749 1.749 0 0 0 .79.547 2.4 2.4 0 0 1 1.348 1.142 6.636 6.636 0 0 0 .68.96 2.569 2.569 0 0 1 .559 1.033.7.7 0 0 0 .5.632 2.593 2.593 0 0 1 .656.462l.243.267-.534-.085c-.583-.1-.571-.17-.231 1.02.121.462.121.559-.061.729-.158.17-.267.17-.7.061-.656-.182-.814-.036-.474.4.255.328.34.656.158.656a2.181 2.181 0 0 1-.51-.425c-.486-.5-.632-.522-.838-.134s-.1.7.352.96c.194.121.364.3.364.4 0 .231-.073.219-.692-.146-.3-.17-.571-.279-.62-.243a.857.857 0 0 0 .146.51 1.282 1.282 0 0 1 .158.486c-.121.121-.462-.134-.7-.51-.134-.231-.292-.413-.34-.413-.194 0-.377.644-.377 1.336 0 .632-.024.729-.231.729-.146 0-.413-.243-.68-.62-.717-1.008-1.239-.547-.62.559.267.486.279.547.085.547a.73.73 0 0 1-.437-.243c-.316-.352-.534-.3-.729.158s-.474.741-.692.668a2.329 2.329 0 0 1-.4-.826c-.267-.79-.559-1.13-.79-.9-.073.073-.049.328.085.753.231.729.121.948-.243.5-.231-.279-.3-.3-.559-.194s-.316.1-.522-.194c-.243-.328-.255-.328-.5-.122-.134.122-.267.17-.292.1-.292-.8-.8-1.045-1.008-.486-.1.267-.182.316-.425.255a.5.5 0 0 0-.535.182l-.243.255-.109-.4c-.085-.352-.158-.413-.462-.413s-.352-.049-.413-.486a2.3 2.3 0 0 0-.158-.632c-.17-.267-.449-.17-.583.17-.1.267-.146.292-.231.158a1.07 1.07 0 0 1-.121-.522c0-.4-.231-.389-.437.024-.316.607-.437.583-.352-.061.073-.559.049-.644-.194-.826-.34-.231-.547-.1-.644.474-.121.632-.316.644-.316.024a1.714 1.714 0 0 0-.073-.607c-.049-.049-.243.061-.437.219a1.382 1.382 0 0 1-.462.3c-.134 0 .024-.547.292-1.069a1.055 1.055 0 0 0-.146-1.36c-.607-.741-.923-1.433-2.442-5.345-2.186-5.648-2.527-6.438-3.328-7.811a21.169 21.169 0 0 0-3.778-4.762 9.01 9.01 0 0 0-3.839-2.66 12.411 12.411 0 0 0-8.479.887c-2.9 1.458-5.041 4.167-6.268 7.932a15.288 15.288 0 0 0-.838 5.26 16.415 16.415 0 0 0 .9 5.588 19.793 19.793 0 0 0 4.725 7.956c3.741 3.729 8.685 5.393 12.317 4.13a12.683 12.683 0 0 0 5.989-4.944c.777-1.154 1.227-1.494 2-1.494 1.263 0 2.624 1.676 2.636 3.255a8.924 8.924 0 0 0 2.247 5.43 8.1 8.1 0 0 0 2.357 1.579c2.527 1.3 3.608 2.466 4.349 4.737a78.936 78.936 0 0 0 6.316 13.629c.972 1.6 3.073 4.774 3.936 5.928 1.895 2.514 3.948 4.13 10.811 8.5 1.033.668 2.709 1.761 3.717 2.442s2.126 1.385 2.466 1.555c.425.219.644.413.692.619.109.437-.024.668-.376.668s-.4.279-.121.656c.389.522.158.571-.364.085-.6-.547-.79-.607-1.045-.3-.134.17-.121.231.134.425.559.425.607.486.547.607-.049.061-.158.061-.3-.012-.449-.243-.644-.158-.559.243s-.049.474-.3.158a2.609 2.609 0 0 0-2.369-.413c-.9.292-5.7 1.494-6.559 1.64a23.323 23.323 0 0 1-4.057.243zm-3.936-56.359c-.207-.789-.862-1.251-1.239-.875-.267.267 0 .765.547.984.668.28.777.256.692-.109zm-44.155-20.346c2.539-1.834 4.215-2.879 4.871-3.012 1.178-.231 5.733-.765 7.143-.826a4.845 4.845 0 0 1 2.369.255c.984.316 1.64.4 1.64.207a4.281 4.281 0 0 0-1.543-1.263 13.462 13.462 0 0 0-4.835-1.263 15.163 15.163 0 0 0-1.944.559c-.8.267-2.077.656-2.818.875a7.869 7.869 0 0 0-3.9 2.235 15.278 15.278 0 0 0-2.454 2.867c.001.277.536.046 1.471-.634zm32.809-2.745a5.555 5.555 0 0 0 .51-1.373 13.276 13.276 0 0 1 3.656-6.511 12.8 12.8 0 0 1 9.778-3.632 22.907 22.907 0 0 1 4.628.984c1.263.449 1.348.377.656-.559-1.3-1.773-5.867-3.887-7.507-3.474a3.2 3.2 0 0 0-.887.571 26.472 26.472 0 0 1-2.357 1.531c-4.2 2.49-4.567 2.794-5.916 5.029-1.251 2.089-3.377 7.082-3.231 7.628.073.279.3.207.668-.194zm29.165-17.565c.571-1.336.158-3.826-1.02-6.2-.765-1.567-1.786-2.211-5.976-3.778-2.9-1.093-3.96-1.336-8.552-1.944a.855.855 0 0 0-.6.109c-.194.134-.17.17.279.413.279.134 1.178.474 2 .753 2.539.838 6.074 2.174 6.948 2.636a20.192 20.192 0 0 1 5.527 5.746 7.786 7.786 0 0 1 .364 1.2c.146.7.522 1.458.741 1.458.07.008.205-.178.29-.393zm-11.019-6.657c.243-.4-1.628-1.033-6.025-2.053-3.924-.911-5.746-1.033-8.054-.547a4.134 4.134 0 0 0-1.786.668c0 .194 1.081.389 3.523.607 2.271.219 11.345 1.288 12.171 1.445a.251.251 0 0 0 .171-.12z" transform="translate(-346.83 -345.305)" style="fill:#fff"/>
    <path data-name="Path 16" d="M843.545 963.751a.853.853 0 0 1-.219-.352.688.688 0 0 0-.109-.279c-.085-.134-.219-.085-.632.267-.8.692-.862.632-.814-.668.036-1.057.024-1.13-.206-1.13-.206 0-.255.109-.34.79-.134 1.045-.267 1.154-.437.34-.073-.352-.121-.4-.413-.364s-.316.024-.243-.34.061-.389-.34-.34-.413.012-.425-.328c-.012-.571-.036-.632-.231-.717a.526.526 0 0 0-.437.182c-.219.219-.3.231-.535.109a.436.436 0 0 0-.522.012c-.316.194-.449.085-.279-.231.219-.413.158-.632-.17-.632-.219 0-.316-.085-.377-.3-.109-.437-1.6-1.324-2.855-1.7a25.4 25.4 0 0 1-8.527-4.482c-4.968-3.729-7.835-7.677-10.519-14.455a36.28 36.28 0 0 1-2.806-10.119c-.158-2.016-.231-2.442-.486-2.952-.17-.328-.182-.474-.073-.644s.085-.267-.134-.449c-.364-.292-.352-.364.073-.364a.76.76 0 0 0 .607-.316c.328-.413.328-.462-.109-.923-.547-.571-.534-.6.413-.632.8-.024.935-.68.194-.935-.51-.182-.462-.449.1-.5.437-.036.449-.049.486-.583a1.612 1.612 0 0 1 .146-.656c.049-.049.3.049.559.219.547.364.692.389.9.134.134-.158.1-.255-.219-.583-.474-.486-.486-.6-.085-.5a.559.559 0 0 0 .534-.121.542.542 0 0 1 .559-.122l.34.085-.085-.571c-.1-.656.012-.7.352-.158.17.267.34.389.547.389.267 0 .3-.049.267-.413l-.024-.413.3.206c.389.255.547.158.547-.316v-.377l.292.267a.755.755 0 0 0 1.227-.182c.231-.328.279-.364.389-.194.279.449 1.324.073 2.927-1.069.692-.486.887-.68.838-.862s0-.231.352-.231c.328 0 .413-.049.413-.231a.584.584 0 0 0-.182-.377c-.292-.243-.219-.4.146-.3a1.055 1.055 0 0 0 .729-.146c.328-.17.4-.279.4-.607 0-.425.1-.5.34-.255.109.109.182.109.292 0a.537.537 0 0 1 .34-.146 1.024 1.024 0 0 0 .5-.255c.158-.146.486-.4.717-.571s.68-.559 1-.838c.547-.5.948-.668.948-.389a5.249 5.249 0 0 1-1.506 2.259 60.371 60.371 0 0 1-10.033 7.033c-3.11 1.737-4.179 3.438-4.167 6.669a9.254 9.254 0 0 0 3.219 7.057 10.3 10.3 0 0 0 7.2 2.867c2.15 0 3.3-.3 5.989-1.64 1.737-.85 2.514-1.069 3.231-.887a2.458 2.458 0 0 1 1.3 1.2 4.316 4.316 0 0 0 .62.826c.364.328.377.352.182.644a1.582 1.582 0 0 0-.206.352 1.471 1.471 0 0 0 .571.122c.826.085 1.032.474.7 1.336-.061.158-.024.207.158.207.146 0 .292-.049.328-.122.182-.292.425-.109.425.292 0 .449.194.692.316.389a.345.345 0 0 1 .6-.121c.219.219.158.534-.194 1.045-.267.377-.279.462-.073.462a1.2 1.2 0 0 0 .51-.364c.486-.5.668-.474.668.109 0 .437.036.486.34.522.279.036.34.1.389.51.036.267.121.5.207.522.134.049.4-.656.4-1.093 0-.279.316-.4.559-.194.158.134.182.3.109.923-.073.729-.061.765.182.765a2.036 2.036 0 0 0 .717-.267c.4-.231.5-.243.668-.109a.547.547 0 0 1 .194.377.49.49 0 0 0 .17.352c.206.182.474-.109.364-.4a.776.776 0 0 1 .255-.85c.377-.146.7.122.838.668.109.449.182.535.437.535s.316-.085.4-.462a.741.741 0 0 1 1.445-.146c.182.413.449.389.547-.061a.863.863 0 0 1 .158-.425c.109-.073.413.206.6.51.182.34.522.1.449-.328-.1-.656.765-1.154 1.81-1.069.474.036.486.049.559.571s.182.68 1.032 1.3c.5.377.243.522-.316.194a2.472 2.472 0 0 0-.6-.267c-.194 0-.158.316.061.753.182.352.182.377-.024.279-.571-.231-.656-.219-.656.073.012.4.194.607 1.008 1.13.9.571.935.862.061.5-.134-.049-.219 0-.279.17a.357.357 0 0 1-.389.255c-.243 0-.292.036-.219.219a4.687 4.687 0 0 1 .219 1.506c.036.644.024.692-.206.668-.352-.036-.291.413.17 1.4.364.753.486 1.531.243 1.373a1.83 1.83 0 0 1-.328-.559c-.1-.267-.255-.462-.328-.437-.243.073-.219.7.061 1.446a1.757 1.757 0 0 1 .182.79c-.036.049-.206-.049-.377-.206-.4-.377-.607-.182-.607.583a2.047 2.047 0 0 0 .413 1.19c.352.559.425.85.729 2.794a23.029 23.029 0 0 0 .534 2.624c.219.522.1.692-.219.34s-.522-.292-.607.219c-.231 1.518-.4 1.689-1.142 1.2a3.082 3.082 0 0 0-.559-.328 3 3 0 0 0 .012.765c.073.632.049.729-.085.6a2.461 2.461 0 0 1-.352-.668c-.231-.607-.559-.68-.85-.17-.17.3-.158.365.036.7.425.753.121.984-.34.255-.134-.207-.292-.364-.364-.34s-.146.3-.182.632c-.061.547-.073.571-.206.328a1.406 1.406 0 0 1-.158-.607 1.225 1.225 0 0 0-.121-.522c-.231-.365-1.093.8-1.093 1.494a.562.562 0 0 1-.121.389c-.243.158-.449-.194-.522-.862-.085-.79-.231-1.02-.547-.826-.158.1-.219.364-.267 1.02-.061.85-.073.875-.267.644zm6.705-3.559c0-.826-.207-1.239-.6-1.19-.474.061-.619.6-.292 1.045.134.182.3.328.377.328a.373.373 0 0 1 .231.109c.061.073.024.073-.085.012-.158-.1-.158-.085-.012.1.284.337.381.228.381-.404z" transform="translate(-714.191 -785.444)" style="fill:#fff"/>
    <path data-name="Path 17" d="M202.329 1227.947a18.454 18.454 0 0 1-1.616-3.134 2.1 2.1 0 0 1 .607-.923c.862-.911.838-1.045-.474-3.207l-1.081-1.761-.644.049c-1.713.121-1.531.206-2.272-1.02a5.783 5.783 0 0 1-.717-1.531c-.061-.377-.012-.474.279-.68.559-.4 1-.474 7.082-1.324 4.47-.62 5.831-.765 6.013-.656a8.7 8.7 0 0 1 1.652 2.454c.462.863.5.984.377 1.336-.158.462-1.616 2.235-6.62 8.029a26.2 26.2 0 0 1-2.32 2.515.422.422 0 0 1-.266-.147zm3.073-8.442c1.154-1.178 1.81-1.956 1.7-2.065a12.456 12.456 0 0 0-3.012.462c-1.275.3-1.288.328-.571 1.628.34.632.571.911.717.911a4.193 4.193 0 0 0 1.164-.936z" transform="translate(-173.857 -1051.402)" style="fill:#fff"/>
    <path data-name="Path 18" d="M1548.273 1192.046c-1.239-1.263-2.745-2.806-3.34-3.438s-1.713-1.8-2.454-2.575c-1.676-1.725-1.664-1.664-.7-3.681.365-.777.668-1.458.668-1.519s.134-.206.3-.316c.352-.231 1.409-.17 8.807.5 5.333.486 5.345.5 5.345.753a24.167 24.167 0 0 1-1.761 3.425c-.146.146-.316.146-1 .036s-.863-.109-1.093.049a18.57 18.57 0 0 0-1.98 3.924 2.781 2.781 0 0 0 .668.862 2.108 2.108 0 0 1 .668.923 11.684 11.684 0 0 1-1.689 3.328 20.6 20.6 0 0 1-2.439-2.271zm.486-5.709a3.391 3.391 0 0 0 1-1.4.317.317 0 0 0-.061-.328 12.029 12.029 0 0 0-1.907-.365 98.866 98.866 0 0 1-2.089-.328c-.6-.122-.389.243.729 1.288.923.887 1.543 1.312 1.883 1.336a1.3 1.3 0 0 0 .445-.203z" transform="translate(-1355.486 -1022.12)" style="fill:#fff"/>
    <path data-name="Path 19" d="M155.787 1073.322a52.432 52.432 0 0 1-3.911-4.482c-.049-.146-.182-1.361-.3-2.7-.158-2.041-.17-2.5-.036-2.757a21.98 21.98 0 0 1 4.883-3.863 4.035 4.035 0 0 1 1.506-.437 9.38 9.38 0 0 1 3.632.535 9.435 9.435 0 0 1 2.612 2.551c1.057 1.385 1.275 2.077 1.385 4.422.073 1.494.061 1.7-.17 2.211a6.333 6.333 0 0 1-1.518 2.053c-.316.17-.4.073-1.178-1.348-.765-1.385-.85-1.822-.5-2.612a2.881 2.881 0 0 0-.036-2.369c-.352-.8-.68-1.033-1.907-1.288-1.518-.316-2.405-.085-4.009 1.033-1.069.741-1.324 1.154-1.324 2.089a3.35 3.35 0 0 0 1.373 2.915c.571.413.692.425 1.069.122l.279-.219-.279-1.045a4.316 4.316 0 0 1-.219-1.215 5.512 5.512 0 0 1 2.016-.814c.474 0 .632.364 1.652 3.8.486 1.628.547 1.956.413 2.089a26.632 26.632 0 0 1-4.7 1.519 1.435 1.435 0 0 1-.733-.19z" transform="translate(-134.616 -915.531)" style="fill:#fff"/>
    <path data-name="Path 20" d="M962.254 973.769c-1.458-1.13-2.745-1.409-5.454-1.178a8.557 8.557 0 0 1-4.883-.62 11.114 11.114 0 0 0-5.369-1.2 13.383 13.383 0 0 1-5.685-1.2 33.567 33.567 0 0 0-5-1.591 25.5 25.5 0 0 0-4.446-.729c-.267.17.109.571.765.814.364.134.656.328.68.449.061.267-.219.255-1.275-.061-.863-.255-.875-.255-1.276-.024-.6.34-.547.753.1 1.057.534.231.948.8.583.8a1.451 1.451 0 0 1-.534-.255 1.68 1.68 0 0 0-1.786 0 7.934 7.934 0 0 1-3.681.62 7.96 7.96 0 0 1-6.96-2.478 35.317 35.317 0 0 1-4.033-4.628c-2.454-3.061-2.891-3.535-3.741-3.936a3.756 3.756 0 0 0-3-.255 13.725 13.725 0 0 1-4.98.182c-.972-.352-.972-.352-.972-.061a3.065 3.065 0 0 0 1.166 1.749 6.42 6.42 0 0 0 1.385.741 3.538 3.538 0 0 1 1 .51c.146.182.085.194-.656.134a5 5 0 0 1-3.79-2.405 1.8 1.8 0 0 1-.279-1.36 3.629 3.629 0 0 1 1.518-2.466c1.045-.777 1.567-.34.948.814a1.473 1.473 0 0 0-.231.632 4.764 4.764 0 0 0 1.846-.048c.96-.182 1.992-.632 6.936-3.061 2.5-1.239 4.75-2.332 4.992-2.442a77.886 77.886 0 0 1 3.571-1.543 16.922 16.922 0 0 1 7.458-1.543c2.879.134 5.1 1.348 6.025 3.316a18.241 18.241 0 0 0 .96 1.664 10.339 10.339 0 0 1 1.494 3.535 10.977 10.977 0 0 1 .1 3.571c-.389.364-.632.279-1.652-.6-1.251-1.093-2-1.567-2.442-1.567-.182 0-.34.049-.34.1 0 .182.413.474.887.632.5.158.692.413.474.632a5.054 5.054 0 0 1-.9.462 2.368 2.368 0 0 0-.8.462c-.024.085.121.206.34.279.474.17.449.51-.061.6-.194.036-.34.1-.328.158a.943.943 0 0 1 .024.194 3.092 3.092 0 0 0 1.008.328c1.032.231 2.162.267 6.948.17a13.194 13.194 0 0 1 3.523.279c.875.17 1.664.34 1.761.377.96.364 2.089.462 6.5.559 5.272.1 5.818.182 7.689 1.166a3.135 3.135 0 0 0 2.15.535 4 4 0 0 1 3 .972l.522.474-.425.012a3.857 3.857 0 0 1-1.069-.243c-1.288-.5-1.458-.158-.206.413.96.437 1 .935.134 1.676-.5.437-.364.644.632 1.008.923.34 1.093.474 1.373 1.118.34.79.62.911 2.393 1.008 1.446.085 2.332.267 2.332.486 0 .17-.656.34-1.543.413a6.179 6.179 0 0 0-1.64.364 6.042 6.042 0 0 1-2.417.559 1.649 1.649 0 0 1-1.363-.53zm.583-2.32c.146-.121.194-.219.109-.292a47.983 47.983 0 0 0-4.846-1.857 15.378 15.378 0 0 0-2.405-.352c-1.555-.121-2.3-.292-2.089-.474a13.808 13.808 0 0 1 2.357-.012 9.329 9.329 0 0 1 4.507.923c.534.206.583.206.887.012a2.657 2.657 0 0 0 .522-.522c.267-.413.121-.644-.583-.887a11.5 11.5 0 0 1-2.818-1.64 7.9 7.9 0 0 0-3.656-1.64 17.788 17.788 0 0 0-3.9.049 22.512 22.512 0 0 1-6.62-.656c-3.668-.814-3.972-.838-7.106-.5a16.4 16.4 0 0 1-5.891-.547 8.391 8.391 0 0 0-3.741-.3c-3.474.279-7.094 1.105-6.681 1.518a15.581 15.581 0 0 0 3.073.668c.607.061 1.725.121 2.5.121a5.491 5.491 0 0 1 2.3.316 39.4 39.4 0 0 0 5.2 1.215l1.846.34.583-.279c.51-.255.862-.3 3.3-.437a40.831 40.831 0 0 1 4.494-.049 37.074 37.074 0 0 1 4.519.486c1.944.292 2.308.377 2.381.571.073.219-.632.182-2.891-.146a25.275 25.275 0 0 0-6.5-.437c-1.7.182-2 .267-2 .607 0 .194.085.243.4.243a7.641 7.641 0 0 1 2.5.717 10.55 10.55 0 0 0 1.883.559 68.779 68.779 0 0 1 7.434 1.774c1.288.389 2.405.717 2.5.717a2.735 2.735 0 0 0 .753-.3 2.792 2.792 0 0 1 2.3-.109 5.063 5.063 0 0 0 1.628.134 4.18 4.18 0 0 1 2.284.449 1.665 1.665 0 0 0 1.467.016zm-44.4-11.868c-.024-2.029-.085-3.79-.146-3.9-.206-.377-.547-.474-1.142-.328a3.99 3.99 0 0 0-2.49 2.284 5.6 5.6 0 0 0 .765 2.988c.607 1.154 2.454 2.843 2.94 2.685a23.092 23.092 0 0 0 .076-3.729zm16.581-.668a6.124 6.124 0 0 0-.79-2.344 2.045 2.045 0 0 0-.68-.547c-.377-.182-.462-.182-.765-.024a1.611 1.611 0 0 0-.826 1.628 7.927 7.927 0 0 0 3.043 1.967c.057 0 .069-.304.02-.68zm-11.054-1.166c1.142-.17 1.215-.219.984-.656a2.664 2.664 0 0 0-2.138-1.385c-1.713 0-2.527 1.591-1.105 2.174.306.134.731.11 2.261-.133zm7.191-.5a4.376 4.376 0 0 0-.632-2 2.338 2.338 0 0 0-1.543-.875 4.637 4.637 0 0 0-.923.182 2.984 2.984 0 0 0-1.81 1.822c-.146.79-.049.838 1.786.935.9.049 1.871.134 2.174.194.768.169.914.132.951-.256zm-10-2.259a4.2 4.2 0 0 1 1.154-.8c.389-.085 1.02.17 2.284.923.826.486 1.069.4 1.737-.668a2.044 2.044 0 0 1 2.138-1.2 3.493 3.493 0 0 1 2.757 1.36c.255.34.522.62.607.62.279 0 .789-.62.875-1.045.073-.364.012-.486-.486-1.069a6.269 6.269 0 0 0-1.13-1.033c-1.676-1.118-4.992-1.421-7.495-.68-.6.17-1.822.632-2.733 1.02a23.426 23.426 0 0 1-2.527.923c-1.251.3-1.494.692-.547.862.607.109.79.207 1.555.911a2.874 2.874 0 0 0 .838.6 3.977 3.977 0 0 0 .978-.723z" transform="translate(-792.329 -818.978)" style="fill:#fff"/>
    <path data-name="Path 21" d="M1503.738 1131.478a2.65 2.65 0 0 1-.62-.34 3.744 3.744 0 0 0-1.057-.413c-.838-.194-1.105-.316-1.421-.668a1.724 1.724 0 0 0-.729-.389c-.413-.109-.449-.146-.267-.255.206-.109.425-.085 2.927.4a18.589 18.589 0 0 1 2.466.729c.146.061.267.182.267.267.001.439-1.019.876-1.566.669z" transform="translate(-1318.957 -977.283)" style="fill:#fff"/>
    <path data-name="Path 22" d="M1458.45 1120.242a7.961 7.961 0 0 0-1.239-.887 2.837 2.837 0 0 1-1.008-.838 2.482 2.482 0 0 0-.765-.7 1.727 1.727 0 0 1-.437-.267 2.518 2.518 0 0 1 .632.073 3.475 3.475 0 0 1 1.616.7 2.265 2.265 0 0 0 .692.3 7.217 7.217 0 0 1 1.567.814c.8.534.923.668.826.85a1.037 1.037 0 0 1-.96.462c-.268.003-.523-.143-.924-.507z" transform="translate(-1279.827 -966.897)" style="fill:#fff"/>
    <path data-name="Path 23" d="M1593.628 1030.613c-.3-.061-7-1.749-9.888-2.5a5.811 5.811 0 0 1-1.713-.62c-.121-.17-.085-.462.207-1.567a10.105 10.105 0 0 1 .559-1.688c.219-.376.073-.3 4.167-1.871 3.353-1.263 3.632-1.385 3.632-1.506 0-.158-.6-.34-3.426-1.081-1.518-.389-2.806-.753-2.879-.8a.346.346 0 0 1-.134-.279 19.232 19.232 0 0 1 .826-3.207c.219-.219 2.9.389 9.232 2.077 3.243.875 3.668 1.02 3.668 1.239a30.041 30.041 0 0 1-.753 2.94c-.182.474-.4.6-2.466 1.348-4.7 1.725-5.685 2.138-5.5 2.32a30.725 30.725 0 0 0 3.438.972c3.061.8 2.976.765 2.976 1.13a15.414 15.414 0 0 1-.753 3.037c-.122.146-.583.17-1.19.061z" transform="translate(-1391.367 -877.208)" style="fill:#fff"/>
    <path data-name="Path 24" d="M1544.319 1120.235a4.043 4.043 0 0 0-.96-.717c-.571-.292-1.725-1.518-1.421-1.518a3.4 3.4 0 0 1 1.312.5 4.119 4.119 0 0 0 .8.389 6.965 6.965 0 0 1 2.029 1.263c.109.267-.292.522-.826.522a1.049 1.049 0 0 1-.934-.439z" transform="translate(-1356.161 -967.303)" style="fill:#fff"/>
    <path data-name="Path 25" d="M1429.516 1116.029c-.632-.3-1.166-.547-1.191-.547a6.766 6.766 0 0 1-.668-.389c-.632-.425-.753-.729-.365-.948a1.01 1.01 0 0 1 1.239.255 6.96 6.96 0 0 0 1.057.741 2.681 2.681 0 0 1 .777.632 2.117 2.117 0 0 0 .449.522c.292.243.292.267.073.279a6.549 6.549 0 0 1-1.373-.547z" transform="translate(-1255.291 -963.814)" style="fill:#fff"/>
    <path data-name="Path 26" d="M1505.029 1109.383a3.674 3.674 0 0 1-1.567-.644 3.291 3.291 0 0 0-.887-.4 6.854 6.854 0 0 1-1.421-.729c-1.008-.656-1.13-.948-.522-1.239a1.311 1.311 0 0 1 1.555.413 6.042 6.042 0 0 0 1.2.85 2.9 2.9 0 0 1 1.069.85 2.883 2.883 0 0 0 .7.68 2.018 2.018 0 0 1 .413.292c0 .024-.012.049-.024.036s-.245-.06-.516-.109z" transform="translate(-1319.592 -956.986)" style="fill:#fff"/>
    <path data-name="Path 27" d="M1456.09 1099.07a5.251 5.251 0 0 1-1.093-.462 3.38 3.38 0 0 0-1-.377 9.919 9.919 0 0 1-3-1.6c0-.243.389-.425 1.081-.51a.97.97 0 0 1 1.057.364 9.481 9.481 0 0 0 1.628.972 3.282 3.282 0 0 1 1.336.875 2 2 0 0 0 .729.607c.522.279.534.291.182.291a4.438 4.438 0 0 1-.92-.16z" transform="translate(-1276.313 -948.058)" style="fill:#fff"/>
    <path data-name="Path 28" d="M1438.51 1100.19a6.131 6.131 0 0 1-.51-1.142c0-.024.134-.049.291-.049a.748.748 0 0 1 .559.4 3.115 3.115 0 0 0 .656.668l.377.267h-.62a1.373 1.373 0 0 1-.753-.144z" transform="translate(-1264.892 -950.611)" style="fill:#fff"/>
    <path data-name="Path 29" d="M1512.023 906.6a10.928 10.928 0 0 0-1.883-.68 8.887 8.887 0 0 1-.9-.158l-.352-.085.7-.838c.389-.474 1.239-1.446 1.883-2.187a21.688 21.688 0 0 0 1.628-2.029 11.99 11.99 0 0 0 1.6-4.592 4.933 4.933 0 0 0-1.725-4 6.656 6.656 0 0 0-3.158-1.446 4.15 4.15 0 0 1-1.324-.486 13.293 13.293 0 0 1 1.227-1.628c.668-.826 1.9-2.369 2.721-3.438 3.4-4.409 4.033-5.041 5.053-5.041h.449l-.073 3.681a77.211 77.211 0 0 1-3.45 21.683c-.5 1.615-.6 1.846-.814 1.846a10.683 10.683 0 0 1-1.582-.602z" transform="translate(-1326.828 -758.213)" style="fill:#fff"/>
    <path data-name="Path 30" d="M1279.8 362.254c-.219-.061-.352-.231-.486-.6-.231-.668-.085-1.251.79-3a9.622 9.622 0 0 0 .668-1.543c0-.4-.85-.243-4.142.777-3.073.947-3.255.984-4.422 1-1.36.012-1.822-.158-2.247-.838-.51-.826-.619-4.191-.194-6.134a11.42 11.42 0 0 1 1.7-3.911c.4-.6.911-1.336 1.105-1.64l.364-.571-.036-1.725a13.994 13.994 0 0 1 .777-5.308c.862-2.648 1.2-3.17 3.583-5.5a30.849 30.849 0 0 1 8.43-6c3.717-1.834 6.73-2.624 14.322-3.778a110.507 110.507 0 0 0 12.378-2.442c1.773-.462 2.077-.583 1.8-.753-.061-.036-1.166-.231-2.454-.437s-2.77-.486-3.268-.62a15.3 15.3 0 0 1-4.215-2.065c-.838-.887-.814-2.138.1-4.409a4.714 4.714 0 0 0 .413-1.4c-.073-.243-.267-.364-1.676-1.069a6.556 6.556 0 0 1-2.9-2.138c-.51-.717-.607-.79-1.263-.972a14.59 14.59 0 0 0-4.944-.34 24.968 24.968 0 0 0-8.26 2.332 117.8 117.8 0 0 1-15.816 5.819c-7.385 1.944-12.317 1.543-14.929-1.215a4.255 4.255 0 0 1-1.47-3.28 7.861 7.861 0 0 1 3.547-6.207c2.7-1.992 6.2-3.632 13.884-6.5 7.179-2.672 8.455-3.219 10.568-4.458 1.458-.862 3.037-2.272 3.037-2.7 0-.292-.279-.656-1.713-2.3a3.785 3.785 0 0 1-.862-4.324c1.2-3.45 3.778-5.782 8.5-7.7 1.373-.559 4.081-1.482 6.219-2.138 5.211-1.567 7.556-2.563 9.839-4.118 1.433-.984 1.433-1-.17-2.66-1.579-1.628-2.016-2.527-1.421-2.9.194-.121.231-.243.17-.559-.061-.389-.036-.413.547-.668a3.252 3.252 0 0 1 .923-.267 86.014 86.014 0 0 1 8.369 2.7 6.071 6.071 0 0 1 2.271 2.187 5.161 5.161 0 0 1-.462 4.106 8.407 8.407 0 0 1-2.7 2.6c-.571.352-2.514 1.47-4.336 2.478a276.657 276.657 0 0 0-7.507 4.312 14.251 14.251 0 0 0-3.11 2.466c-2.15 2.114-2.32 3.365-.777 5.7a7.134 7.134 0 0 1 .765 1.446 5.61 5.61 0 0 1-1.02 3.729c-.668.911-2.308 2.053-4.871 3.389-1.178.607-1.482.85-1.081.85.668 0 3.79-1.215 8.394-3.255 5.855-2.6 6.317-2.794 7.847-3.34a28.763 28.763 0 0 1 11.333-1.907c2.016.17 2.952.5 3.851 1.3a2.312 2.312 0 0 1 .9 1.7c.158 1.166-.741 3.486-1.907 4.9a20.173 20.173 0 0 0-1.919 2.575 5.033 5.033 0 0 0 .789.875 2.684 2.684 0 0 1 .838 3.5 4.867 4.867 0 0 1-1.251 2.089 2.158 2.158 0 0 0-.376.437 9.464 9.464 0 0 0 2.369 1.057 13.545 13.545 0 0 0 5.223-.061c2.879-.68 5.09-1.142 6.244-1.3q7.361-1.039 5.782 4.033c-1.081 3.462-3.948 7.057-7.871 9.888a43.09 43.09 0 0 1-9 4.665 114.607 114.607 0 0 1-20.6 6.086c-1.105.231-2.235.474-2.526.534s-2.284.474-4.434.911-4.106.838-4.336.923c-1.081.364-2.077 1.421-5.3 5.588a69.219 69.219 0 0 1-6.875 8.041c-.462.389-.583.559-.559.8l.036.3 2 .024a10.816 10.816 0 0 1 3.7.449c1.9.5 2.5.826 2.94 1.6.7 1.251 0 3.717-1.64 5.758-.3.377-.583.7-.632.741s-.85.947-1.81 2.029a19.771 19.771 0 0 1-2.053 2.15 2.411 2.411 0 0 1-1.474.206zm1.871-2.83c.619-.644 2.1-2.344 3.571-4.069 1.19-1.421 1.628-2.454 1.36-3.255-.17-.522-.875-.887-2.612-1.361a10.526 10.526 0 0 0-3.559-.34c-2.685 0-2.587.036-2.818-1.105a2.611 2.611 0 0 1 .206-1.846c.1-.146.838-.947 1.652-1.761a69.469 69.469 0 0 0 6.037-7.13c2.66-3.425 3.826-4.8 4.592-5.369 1.033-.79 1.178-.826 4.033-1.373 5.515-1.057 13.9-2.915 17.492-3.887a85.622 85.622 0 0 0 18.767-7.361 23.038 23.038 0 0 0 7.75-7.458 5.831 5.831 0 0 0 1.3-3.012c0-1.336-.826-1.737-3.389-1.628-1.628.073-2.684.267-8.151 1.506a11.826 11.826 0 0 1-2.612.206 7.4 7.4 0 0 1-2.794-.34c-1.992-.607-3.571-1.6-3.766-2.381-.1-.389.231-.826 1.008-1.348 1.227-.838 1.725-1.47 1.725-2.235 0-.389-.122-.571-.96-1.445-1.616-1.676-1.531-2.053 1.069-5.3 1.409-1.749 1.9-2.685 1.8-3.474-.316-2.794-7.094-2.952-14.479-.328-1.506.534-3.644 1.433-6.766 2.842-7.835 3.535-10.884 4.507-15.694 4.98-1.664.17-2.2.1-2.2-.3 0-.449 1.057-1.045 6.863-3.875 4.737-2.308 6.5-3.547 6.912-4.847.194-.6.024-1.154-.608-1.992-1.871-2.454-1.4-5.527 1.276-8.248 1.6-1.628 3.012-2.5 12.341-7.713 3.814-2.126 4.725-2.806 5.235-3.936a2.369 2.369 0 0 0-.838-2.879c-.79-.7-1.543-1.02-5.405-2.235-2.575-.814-3.413-1.033-3.523-.923s.146.425 1.033 1.324c1.288 1.288 1.664 1.931 1.676 2.83 0 1.227-1.409 2.466-4.6 4.069a38.543 38.543 0 0 1-6.45 2.429c-6.122 1.871-8.855 2.952-10.993 4.361-2.2 1.458-4.069 3.887-4.069 5.3 0 .814.267 1.288 1.531 2.66 1.13 1.227 1.494 1.871 1.506 2.551 0 1.033-1.251 2.685-2.855 3.753-2.271 1.531-4.47 2.551-9.6 4.446a106.561 106.561 0 0 0-12.329 5.041c-4.239 2.162-6.438 4.312-6.438 6.329 0 1.871 1.871 3.693 4.47 4.373 4.446 1.154 12.56-.753 24.136-5.685.875-.377 1.907-.826 2.308-1.008a24.782 24.782 0 0 1 8.321-2.308c3.389-.316 6.474.279 7.094 1.36a5.088 5.088 0 0 0 2.441 2c2.235 1.13 2.733 1.579 2.733 2.49a7.408 7.408 0 0 1-.632 1.737 4.316 4.316 0 0 0-.644 2.016c0 .887.158 1.069 1.64 1.81 1.713.85 2.757 1.142 6.316 1.7 4.92.765 6.013 1.105 5.928 1.8-.073.62-2.211 1.458-6.6 2.563a126.6 126.6 0 0 1-13.666 2.624 59.172 59.172 0 0 0-7.2 1.409 31.724 31.724 0 0 0-13.7 8 10.137 10.137 0 0 0-3.462 8.564 6.243 6.243 0 0 1-1.506 5.114 8.119 8.119 0 0 0-1.932 5.916c.012 1.761.134 2.381.535 2.733.559.474 1.506.34 5.1-.765 3.984-1.215 4.81-1.312 5.454-.68.522.534.207 2.016-.838 3.814-.522.9-.6 1.178-.267 1.178a3.057 3.057 0 0 0 .742-.628z" transform="translate(-1102.803 -216.161)" style="fill:#fff"/>
    <path data-name="Path 31" d="M1800.045 665.135c-3.34-.158-7.045-1.336-7.045-2.235 0-.753 1.324-.911 5.673-.668a14.76 14.76 0 0 0 6.681-.656c2.15-.619 3.025-.7 3.353-.34.838.923-1.227 2.964-3.644 3.608a20.111 20.111 0 0 1-5.018.291z" transform="translate(-1576.77 -565.833)" style="fill:#fff"/>
    <path data-name="Path 32" d="M1770.67 586.384c-1.385-.255-1.9-1.4-.935-2.114.3-.219.389-.231 1.02-.1 1.118.231 2.308 1.239 2.016 1.713a2.336 2.336 0 0 1-2.101.501z" transform="translate(-1555.897 -498.245)" style="fill:#fff"/>
    <path data-name="Path 33" d="M1684.677 525.742a16.806 16.806 0 0 1-3.547-.8c-.4-.219-.267-.68.3-1.045a19.133 19.133 0 0 1 4.9-1.931 10.872 10.872 0 0 1 3.486-.279 2.438 2.438 0 0 1 1.36 1.093 2.31 2.31 0 0 1-.049 1.883c-.656 1.067-3.134 1.48-6.45 1.079zm4.409-1.117c.437-.085.559-.377.255-.607a5.212 5.212 0 0 0-2.782.182c-1.542.389-.959.656 1.154.547.56-.025 1.179-.086 1.374-.123z" transform="translate(-1478.286 -443.373)" style="fill:#fff"/>
    <path data-name="Path 34" d="M1208.6 1052.62c-.134-.243-.061-.62.109-.62s.389.352.34.559c-.06.304-.303.341-.449.061z" transform="translate(-1063.297 -909.32)" style="fill:#fff"/>
    <path data-name="Path 35" d="M1209.392 1041.541c-.231-.194-.255-.267-.146-.389.243-.255 1.057 0 1.105.352.036.219-.012.267-.316.267a1.255 1.255 0 0 1-.643-.23z" transform="translate(-1063.87 -899.7)" style="fill:#fff"/>
    <path data-name="Path 36" d="M1209.019 1031.053c-.377-.146-.5-.3-.352-.474s.292-.158 1.3.1c.753.194.68.462-.121.449a3.717 3.717 0 0 1-.827-.075z" transform="translate(-1063.364 -890.402)" style="fill:#fff"/>
    <path data-name="Path 37" d="M1213.58 1015.2c-.413-.17-.4-.158-.194-.583a1.069 1.069 0 0 1 1.13-.62c.583 0 .935.194.583.3-.134.049-.376.134-.534.194l-.292.121.267.279a1.15 1.15 0 0 1 .255.352c0 .13-.863.093-1.215-.043z" transform="translate(-1067.439 -875.936)" style="fill:#fff"/>
    <path data-name="Path 38" d="M1217.566 993.39a1.639 1.639 0 0 1-.948-.365c-.207-.291-.024-.559.376-.559.316 0 .607-.292.486-.486a1.526 1.526 0 0 0-.741-.121c-1.045 0-.765-.267.449-.449a31.71 31.71 0 0 0 1.482-.231c.583-.109.583.085.012.425-.352.219-.413.292-.292.437.182.219.1.352-.364.547-.194.085-.365.194-.365.243a2.174 2.174 0 0 0 .947.486.283.283 0 0 1 .207.121c.1.146-.231.134-1.251-.049z" transform="translate(-1069.943 -855.861)" style="fill:#fff"/>
    <path data-name="Path 39" d="M1208.96 970.484c-.121-.194.036-.34.425-.425.741-.158.571-.535-.352-.777-.656-.17-.984-.425-.778-.632a3.206 3.206 0 0 1 .96-.194 5.935 5.935 0 0 0 1.251-.231c.522-.219.632-.219.535.012a1.3 1.3 0 0 1-.535.437c-.267.134-.474.279-.474.328a2.031 2.031 0 0 0 .644.4c.79.377.935.79.3.887-.219.036-.729.121-1.118.194-.87.147-.773.147-.858.001z" transform="translate(-1063.001 -835.579)" style="fill:#fff"/>
    <path data-name="Path 40" d="M1618.674 884.185a10.485 10.485 0 0 1-3.389-1.8 9.419 9.419 0 0 1-1.3-2.867 6.878 6.878 0 0 1-.109-4.312 5.378 5.378 0 0 1 1.458-2.9 5.46 5.46 0 0 1 1.931-1.166c.158 0 .316.62.571 2.271l.206 1.373-.547.583a3.006 3.006 0 0 0-.875 2.381c-.012.814-.012.826.474 1.239a7.837 7.837 0 0 0 1.324.838 4.232 4.232 0 0 0 3.656.061c1.336-.449 1.567-.607 1.895-1.251a3.18 3.18 0 0 0 .279-1.664c.012-1.348-.158-1.8-.826-2.114-.875-.413-1.045-.255-1.118 1.093a4.254 4.254 0 0 1-.182 1.2 5.752 5.752 0 0 1-2.454-.1 34.766 34.766 0 0 1 .279-5.964 29.252 29.252 0 0 1 5.321.146 5.923 5.923 0 0 1 1.263 2.454 7.153 7.153 0 0 1 .267 2.672 10.8 10.8 0 0 1-.462 3.608c-.571 2.3-.789 2.636-2.041 3.231a12.75 12.75 0 0 1-4.264 1.3 5.85 5.85 0 0 1-1.357-.312z" transform="translate(-1419.146 -750.325)" style="fill:#fff"/>
    <path data-name="Path 41" d="M106.018 708.384c-1.907-.5-3.28-2.1-4.652-5.43a29 29 0 0 1-2.174-12.876 31.8 31.8 0 0 1 3.4-14.7c.972-2 2.1-3.243 3.3-3.656a7.033 7.033 0 0 1 3.474.121c1.749.668 3.11 2.636 4.361 6.292a29.883 29.883 0 0 1 1.591 8.054 46.757 46.757 0 0 1-.243 8.442c-1.008 6.669-3.5 12.256-6.013 13.483a5.186 5.186 0 0 1-3.044.27zm2.357-2.526a5.381 5.381 0 0 0 1.883-1.506c.753-.85.8-1.13.255-1.373-.4-.182-.389-.34.134-1.057a3.623 3.623 0 0 0 1-2.648c-.036-.863-.049-.875-.377-.911a3.889 3.889 0 0 0-1.093.146 6.2 6.2 0 0 1-5.588-.923 8.563 8.563 0 0 1-1.8-2.454c-.279-.656-.534-.753-.413-.158a6.693 6.693 0 0 0 3.7 4.6c.5.243.8.474.729.522a3.534 3.534 0 0 1-.85.146c-1.409.134-2.344-.692-3.608-3.207a8.233 8.233 0 0 0-.777-1.373 1.9 1.9 0 0 0-.109.887 7.714 7.714 0 0 0 2.563 5.478 4.521 4.521 0 0 0 2.3 1.166c.534 0 .85.207.85.534 0 .5-.292.62-1.142.474a3.869 3.869 0 0 1-2.369-1.215 3.032 3.032 0 0 0-.814-.607c-.158.146.583 1.458 1.154 2.065a4.289 4.289 0 0 0 4.372 1.414zm-7.288-11.115c.352-.449.316-.838-.121-1.531-.5-.765-.8-.948-.911-.534a4.4 4.4 0 0 0 .389 2.15c.266.304.356.292.643-.085zm2.211-3.219a8.081 8.081 0 0 1 3.583-4 8.8 8.8 0 0 1 2.7-.729c.486 0 .279-.231-.292-.316a8.562 8.562 0 0 0-3.231.437 6.245 6.245 0 0 0-2.514 1.713 5.382 5.382 0 0 0-.935 2.587c-.073.729.012 1.518.146 1.385.02-.032.275-.518.545-1.077zm-1.713.389a13.686 13.686 0 0 1 1.166-3.4 7.269 7.269 0 0 1 5.163-4.045 3.554 3.554 0 0 0 1.081-.352c0-.243-1.567-.1-2.83.255-.7.194-1.506.4-1.786.437l-.51.085.219-.352a6.2 6.2 0 0 1 1.688-1.689 9.773 9.773 0 0 1 3.632-1.069 6.46 6.46 0 0 0 2.114-.559c.049-.146-.146-.158-1.2-.1a19.626 19.626 0 0 0-5.357 1.275 4.62 4.62 0 0 1-1.312.364 2.153 2.153 0 0 1 .644-1.032c.207-.219.34-.437.292-.474-.182-.182-1.093.389-1.786 1.118-2.077 2.162-2.927 6.608-1.749 9.256.263.622.531.756.531.282zm6.863-14.892a5.977 5.977 0 0 1 2.211.255c.51.134.292-.17-.352-.486a2.694 2.694 0 0 0-1.324-.316 3.768 3.768 0 0 1-1.045-.134l-.34-.134.425-.182c.668-.279 1.421-.146 2.782.51a4.4 4.4 0 0 0 1.312.5c.17-.17-1.239-1.409-2.1-1.834a3.173 3.173 0 0 0-1.773-.449 10.808 10.808 0 0 0-1.312.073l-.425.085.462-.3a3.538 3.538 0 0 1 1.13-.377c.364-.036.656-.121.656-.182 0-.182-1.13-.486-1.81-.486a2.662 2.662 0 0 0-2.563 1.737 7.943 7.943 0 0 0-.449 2.915c.061.17.316.109 1.968-.462a19.237 19.237 0 0 1 2.551-.729z" transform="translate(-88.698 -575.095)" style="fill:#fff"/>
    <path data-name="Path 42" d="M1202.17 956.717c.061-.3 1.215-.632 2.3-.632.972-.012 1.105.024 1 .3-.036.109-.255.17-.571.17a9.254 9.254 0 0 0-1.287.182c-1.112.247-1.491.235-1.442-.02z" transform="translate(-1057.705 -825.055)" style="fill:#fff"/>
    <path data-name="Path 43" d="M507.873 792.414a5.221 5.221 0 0 1-2.927-2.66c-1.069-2.417-.364-6.6 2-11.88a5.446 5.446 0 0 0 .5-1.458 4.011 4.011 0 0 0-.875-1.931c-.765-1-2.138-2.077-2.357-1.859a3.1 3.1 0 0 0 .243 1.069c.765 2.32.68 4.057-.425 8.09a19.267 19.267 0 0 0-.887 4.628c-.158 1.6-.207 1.81-.522 2.259a1.1 1.1 0 0 1-1.518.522 4.05 4.05 0 0 1-1.98-1.846 14.542 14.542 0 0 1-1.786-6.584 17.712 17.712 0 0 1 .34-5.32 8.4 8.4 0 0 1 3.632-5.053 2.62 2.62 0 0 1 1.786-.328c1.7.1 2.709.777 4.021 2.733a35.164 35.164 0 0 1 3.037 6 17.564 17.564 0 0 0 3.353 5.806c.85 1 1.081 1.421.935 1.774-.194.51-1.567-.1-2.405-1.081a18.312 18.312 0 0 1-3.632-6.535 2.7 2.7 0 0 0-.364-.826 14.984 14.984 0 0 0-1.36 3.219c-.9 2.806-.984 3.243-.984 5.223a5.7 5.7 0 0 0 .279 2.551 3.475 3.475 0 0 0 1.992 2 4.129 4.129 0 0 0 3.936-1.4c.814-.96 1.045-1.033 3.1-1.045 1.871-.012 2.259-.073 2.442-.364.231-.377-.049-.826-1.518-2.417-1.871-2.016-1.931-2.1-2.053-2.709a4.218 4.218 0 0 1 .267-1.846c.4-1.518.425-1.919.17-2.417-.389-.753.194-.935.85-.279a1.422 1.422 0 0 1 .255 1.907c-1.033 1.98-.972 1.8-.814 2.308.194.656.559 1.057 1.907 2.077a7 7 0 0 1 2.405 2.782c.437.972.51 1.506.255 1.895l-.206.328-1.239-.109c-.668-.049-1.688-.1-2.259-.1-1.409 0-1.919.255-3.183 1.543a8.059 8.059 0 0 1-1.494 1.239 4.754 4.754 0 0 1-2.915.085zm-5.989-4.361a4.986 4.986 0 0 0 .328-1.737 25.807 25.807 0 0 1 .559-3.158 37.1 37.1 0 0 0 1.312-7.045c.012-1.713-.607-3.7-1.275-4.179a2.013 2.013 0 0 0-1.786.049c-.753.377-1.154 1.069-1.822 3.085a12.542 12.542 0 0 0-.911 5.114 7.054 7.054 0 0 0 .328 2.745 19.245 19.245 0 0 0 1.8 4.009c.763 1.336 1.083 1.564 1.467 1.117z" transform="translate(-438.441 -661.614)" style="fill:#fff"/>
    <path data-name="Path 44" d="M1168.085 919.143a.3.3 0 0 1 .109-.364c.28-.194.255-.389-.036-.547a.441.441 0 0 0-.486 0 .661.661 0 0 1-.9-.3c-.182-.279-.17-.328.231-1.093.231-.437.425-.814.425-.85 0-.109-.5-.061-.765.073a7.221 7.221 0 0 0-.753.535c-.62.5-.911.607-.911.34a2.992 2.992 0 0 1 .814-1.725c.51-.559.7-.522.328.049-.182.279-.182.3 0 .376a3.2 3.2 0 0 0 .972-.085c.644-.121.826-.121.972.012.267.207.243.559-.061 1.057-.364.6-.158.717.5.28.559-.365.85-.462.85-.255 0 .17-.34.474-.741.68-.437.231-.462.6-.061.85.352.231.559.158 1.093-.413.656-.693.948-.4.316.316-.571.656-.437.814.4.462.4-.158.571-.146.571.073 0 .255-1.069.632-1.907.692-.765.044-.899.019-.96-.163z" transform="translate(-1025.054 -788.793)" style="fill:#fff"/>
    <path data-name="Path 45" d="M967.164 855.127c-.194-.182-.036-.632.838-2.442a28.879 28.879 0 0 0 1.154-2.7 9.939 9.939 0 0 1 .377-1.057.84.84 0 0 0 .061-.51c-.049-.206 0-.255.231-.255.413 0 .522-.34.182-.6-.316-.243-.231-.377.231-.377a.823.823 0 0 0 .79-.972c-.073-.352-.061-.377.146-.255a1.661 1.661 0 0 1 .4.3c.219.279.364.243.5-.158.121-.328.146-.34.5-.206.328.121.389.109.547-.134a.646.646 0 0 1 .51-.279 12.155 12.155 0 0 0 1.774-.437 10.749 10.749 0 0 1 7.713.571 7.636 7.636 0 0 0 3.037.875.636.636 0 0 1 .462.3c.194.352.364.34.534-.036s.3-.389.4.036a.932.932 0 0 0 1.045.7c.4-.073.449.085.17.462-.243.328-.231.425.109.547.231.1.292.231.352.814a3.186 3.186 0 0 0 .522 1.433 10.646 10.646 0 0 1 1.263 2.818.9.9 0 0 1-.17.474c-.17.231-.182.231-.62.024a4.536 4.536 0 0 1-1.749-1.7 18.69 18.69 0 0 1-.255-1.239 4.609 4.609 0 0 0-4.045-4.081 5.746 5.746 0 0 1-1.968-.656 5.306 5.306 0 0 0-3.316-.753 10.149 10.149 0 0 0-2.9.68c-3.571 1.19-3.863 1.458-6.317 5.77-1.499 2.642-2.143 3.416-2.508 3.043z" transform="translate(-851.185 -727.109)" style="fill:#fff"/>
    <path data-name="Path 46" d="M1026.7 876.493a1.984 1.984 0 0 1-1.2-1.628c0-.413.073-.547.486-.911a7.257 7.257 0 0 1 1.385-.85 3.987 3.987 0 0 1 1.883-.486c1.251-.061 2.016.134 4.227 1.081a10.762 10.762 0 0 0 1.883.692c.632-.121.474-.935-.328-1.689-.328-.316-.571-.6-.522-.644.146-.146.765-.073 1.409.17a3.5 3.5 0 0 1 1.858 1.761c.632 1.324.243 2.211-1.105 2.551-1.688.425-3.012.109-5.406-1.275a7.369 7.369 0 0 0-1.445-.656c-1.154-.34-2.806-.206-3.183.243-.17.206-.194.182.972 1.166.219.182.376.4.352.486-.085.244-.717.244-1.266-.011z" transform="translate(-902.499 -751.171)" style="fill:#fff"/>
    <path data-name="Path 47" d="M828.647 703.229c-5.393-.826-8.831-3.413-11.236-8.454-2.344-4.907-1.518-10.568 1.992-13.86a9.3 9.3 0 0 1 3.984-2.174 12.008 12.008 0 0 1 5.454.061 13.675 13.675 0 0 1 9.159 7.676 12.52 12.52 0 0 1 1.518 6.074 10.711 10.711 0 0 1-2.49 7.373 9.562 9.562 0 0 1-4.7 3.013 13.284 13.284 0 0 1-3.681.291zm2.114-1.822c.146-.134-.413-.425-1.81-.96-4.92-1.883-8.066-4.276-9.074-6.948a15.846 15.846 0 0 1-.9-3.936 10.957 10.957 0 0 1 1.883-7.519c.437-.668.559-1.093.292-1.093a3.266 3.266 0 0 0-1.652 1.312 15.351 15.351 0 0 0-1.859 3.972 12.489 12.489 0 0 0 12.281 15.257 4.921 4.921 0 0 0 .838-.085zm.255-4.98a4.632 4.632 0 0 1 1.093-1.992 5.415 5.415 0 0 1 1.591-.012 10.76 10.76 0 0 0 1.421.061c.134-.109-.437-.777-.9-1.069a2.128 2.128 0 0 1-.534-.413 3.226 3.226 0 0 1 .8-.51 5.484 5.484 0 0 0 1.251-.923 15.7 15.7 0 0 0 1.47-1.822c0-.231-2.186.182-3.207.607a1.5 1.5 0 0 1-.522.158 6.392 6.392 0 0 1 .352-1.13 6.05 6.05 0 0 0 .4-2.988 13.365 13.365 0 0 0-.073-1.919 18.462 18.462 0 0 0-2.393 2.77 5.381 5.381 0 0 0-.389 1.032 1.96 1.96 0 0 1-.243.632c-.061.036-.279-.255-.486-.632a26.32 26.32 0 0 0-2.587-3.583 14.378 14.378 0 0 0-1.446-1.676c-.122 0-.085.534.146 2.672a12.285 12.285 0 0 0 .911 3.462c.255.6.267.68.085.607-.231-.085-1.239-.3-2.757-.607-.534-.1-1.093-.219-1.239-.255-.219-.061-.279-.024-.279.158a.836.836 0 0 0 .255.474 6.514 6.514 0 0 1 .741.935 7.112 7.112 0 0 0 2.514 2.357l.753.352-.972.632a16.243 16.243 0 0 1-1.409.838c-.231.109-.425.267-.425.34 0 .207 1.543.486 2.672.474a3.825 3.825 0 0 0 1.786-.316l.753-.316.085.656c.109.923.777 1.725.777.948zm-8.649-16.119a.254.254 0 0 0-.158-.279c-.243-.1-.607.231-.486.437s.595.097.644-.158z" transform="translate(-718.522 -581.151)" style="fill:#fff"/>
    <path data-name="Path 48" d="M1388.771 689.323c-.024-.17-.1-.717-.134-1.215a63.148 63.148 0 0 0-2.964-13.69l-.474-1.348.316-.134a71.29 71.29 0 0 1 1.664-.486 116.136 116.136 0 0 0 14.9-5.466c1.239-.534 2.32-.984 2.405-.984.17 0 .474.717 1.033 2.442 1.142 3.523 2.527 8.867 2.344 9.05-.036.036-.814.279-1.713.534a33.959 33.959 0 0 0-11.479 5.855 51.042 51.042 0 0 0-5.333 5.138c-.48.581-.492.595-.565.304z" transform="translate(-1218.506 -570.208)" style="fill:#fff"/>
    <path data-name="Path 49" d="M1035.3 720.788a9.523 9.523 0 0 1-7.592-6.73c-1.251-3.632.158-7.653 3.231-9.159a6.19 6.19 0 0 1 4.312-.559 9.143 9.143 0 0 1 6.572 4.919 8.794 8.794 0 0 1 .158 8.5 6.533 6.533 0 0 1-6.681 3.029zm1.676-1.251a5.684 5.684 0 0 0-1.4-.68c-2.6-1.069-4.458-2.32-5.223-3.523a9.784 9.784 0 0 1-1.142-3.936 7.119 7.119 0 0 1 .948-4.166 4.966 4.966 0 0 0 .547-1.324c-.1-.1-.583.219-1 .644a9.523 9.523 0 0 0-1.47 3.134 7.15 7.15 0 0 0-.134 2.065 8.543 8.543 0 0 0 6.219 7.726c.784.23 2.691.266 2.655.06zm.571-3.826c.328-.717.486-.789 1.616-.753.96.036 1.057-.134.376-.656l-.437-.328.6-.34a4.943 4.943 0 0 0 1.057-.9c.243-.3.535-.632.632-.729s.121-.206.061-.255a12.644 12.644 0 0 0-2.417.474c-.061.036.024-.3.182-.753a5.546 5.546 0 0 0 .279-1.992 3.921 3.921 0 0 0-.1-1.19 7.82 7.82 0 0 0-1.737 2.126l-.3.644-1.069-1.421c-1.2-1.615-1.713-2.2-1.907-2.2-.3 0 .182 2.879.644 3.8a1.281 1.281 0 0 1 .182.522 7.844 7.844 0 0 1-1.47-.267 10.1 10.1 0 0 0-1.494-.255 10.2 10.2 0 0 0 1.494 2.053 5.243 5.243 0 0 0 .765.5l.535.3-.5.352a9.8 9.8 0 0 1-.875.547c-.474.267-.413.389.3.583a3.962 3.962 0 0 0 2.332-.17l.376-.182.061.425c.073.449.292.814.437.729a3.3 3.3 0 0 0 .377-.665zm-6.074-10.289c0-.109-.085-.17-.206-.146-.3.061-.34.34-.049.34.146 0 .255-.073.255-.194z" transform="translate(-904.039 -603.751)" style="fill:#fff"/>
    <path data-name="Path 50" d="M196.541 499.274c-2.308-1.166-4.251-2.114-4.337-2.114-.255-.012-.619.474-1.324 1.834a6.241 6.241 0 0 1-.9 1.433c-.146.085-.5-.036-1.312-.437a7.567 7.567 0 0 1-1.239-.717c-.194-.243-.158-.352 1.652-3.948 3.1-6.171 3.608-7.106 3.9-7.143a5.871 5.871 0 0 1 2.587 1.433 9.859 9.859 0 0 1-.729 1.688 11.888 11.888 0 0 0-.729 1.64c0 .364 1.069 1.008 5.405 3.231 1.47.753 2.77 1.458 2.891 1.555.255.219.231.328-.449 1.786-.777 1.688-.85 1.822-1.045 1.846-.095.015-2.063-.92-4.371-2.087z" transform="translate(-166.162 -413.99)" style="fill:#fff"/>
    <path data-name="Path 51" d="M274.021 386.642c-.121-.061-1.628-1.227-3.34-2.563s-3.911-3.073-4.9-3.838a12.082 12.082 0 0 1-1.781-1.555 7.927 7.927 0 0 1 .935-1.458c1.154-1.616 5.029-6.559 5.381-6.887.255-.231.267-.231.935.121.85.462 1.373.935 1.373 1.263a1.825 1.825 0 0 1-.462.777 45.867 45.867 0 0 0-3.426 4.6 3.587 3.587 0 0 0 1.385 1.19c.255 0 .486-.255 2.2-2.429a23.144 23.144 0 0 1 1.883-2.235c.17-.073.413.049 1.081.547.462.364.85.753.85.862a19.563 19.563 0 0 1-1.749 2.563 22.439 22.439 0 0 0-1.761 2.551c0 .109.231.352.522.547a4.8 4.8 0 0 1 .741.62c.5.547.656.413 2.77-2.259 1.518-1.919 2.065-2.539 2.284-2.563a5.506 5.506 0 0 1 2.15 1.385.82.82 0 0 1-.146.51c-.474.729-6.389 8.26-6.535 8.321a.531.531 0 0 1-.39-.07z" transform="translate(-233.5 -310.322)" style="fill:#fff"/>
    <path data-name="Path 52" d="M1392.661 319.484a7.985 7.985 0 0 1-2.612-1.373 8.837 8.837 0 0 1-2.381-3.146A3.925 3.925 0 0 1 1387 313a6.217 6.217 0 0 1 .729-2.587l.243-.4.377.219a13.47 13.47 0 0 1 1.409 1.19l1.045.972-.158.826a3.39 3.39 0 0 0-.073 1.093 4.275 4.275 0 0 0 2.2 2.029c.279 0 .911-.583.911-.838a7.371 7.371 0 0 0-1-2.575 7.6 7.6 0 0 1-.729-1.433 8.739 8.739 0 0 1-.024-3.778 1.77 1.77 0 0 1 .68-1.275 4.016 4.016 0 0 1 2.49-.838c1.458 0 3.207 1.239 4.482 3.158 1.251 1.919 1.445 2.575 1.093 3.887-.219.838-.462 1.312-.693 1.36a9.538 9.538 0 0 1-2.563-2.2 1.49 1.49 0 0 1-.146-1 1.769 1.769 0 0 0-.826-1.81c-.571-.486-.7-.522-1.13-.243-.522.34-.413.923.389 2.247a7.019 7.019 0 0 1 1.227 3.365 5.452 5.452 0 0 1-.377 3.146 6.383 6.383 0 0 1-2.186 1.652 2.261 2.261 0 0 1-1.709.317z" transform="translate(-1220.087 -253.587)" style="fill:#fff"/>
    <path data-name="Path 53" d="M369.778 293.381c-.534-.559-1.324-1.421-1.749-1.931s-1.822-2.1-3.1-3.559c-2.842-3.255-2.77-3.17-2.672-3.474.194-.619 3.717-3.3 6.2-4.725 1.312-.753 1.64-.777 3.243-.243 2.514.838 4.64 2.3 5.43 3.753a3.33 3.33 0 0 1 .474 2.126 4.729 4.729 0 0 1-.219 2.114c-.486 1.458-1.64 2.855-4.227 5.138-.777.692-1.555 1.373-1.725 1.531a1.059 1.059 0 0 1-.5.267 4.83 4.83 0 0 1-1.155-.997zm3-4.555c.765-.79 1.081-1.288 1.081-1.664a8.333 8.333 0 0 0-1.118-2.757 3.744 3.744 0 0 0-2.5-1.883 1.771 1.771 0 0 0-1.166.231c-1.008.462-1.774 1.033-1.774 1.312 0 .206.838 1.2 4.069 4.883a1.443 1.443 0 0 0 .632.449 2 2 0 0 0 .777-.571z" transform="translate(-319.794 -230.29)" style="fill:#fff"/>
    <path data-name="Path 54" d="M489.977 219.166c-1.178-1.883-2.721-4.373-3.438-5.527a12.591 12.591 0 0 1-1.251-2.259 24.353 24.353 0 0 1 3.146-1.956.382.382 0 0 1 .364.146c.437.5 6.778 10.787 6.754 10.945a15.7 15.7 0 0 1-3.231 2.089c-.146-.004-.875-1.069-2.344-3.438z" transform="translate(-427.906 -169.084)" style="fill:#fff"/>
    <path data-name="Path 55" d="M1217.479 202.291c-.194-.109-.9-.5-1.567-.862l-1.19-.668.085-.753c.134-1.045.1-1.288-.219-1.628a23.624 23.624 0 0 0-3.6-2.089 3.392 3.392 0 0 0-.79.6c-.862.79-1.02.826-1.8.425a7.19 7.19 0 0 1-2.405-1.725 5.759 5.759 0 0 1 1.3-1.3c.717-.607 2.891-2.454 4.823-4.118s3.656-3.1 3.814-3.207a1.391 1.391 0 0 1 .692-.17 11.228 11.228 0 0 1 3.608 1.919c.134.292.122.425-.631 5.636-.377 2.551-.535 3.6-.972 6.389a54.452 54.452 0 0 0-.243 1.664c0 .146-.535.085-.911-.109zm-1.834-7.07a19.484 19.484 0 0 0 .862-4.13c-.1-.109-.607.3-1.919 1.555-1.02.972-1.276 1.275-1.19 1.433a9.859 9.859 0 0 0 2.1 1.239.225.225 0 0 0 .146-.1z" transform="translate(-1061.073 -149.209)" style="fill:#fff"/>
    <path data-name="Path 56" d="M1356.321 246.693a.9.9 0 0 1-.061-.692c.134-.8.255-.947.765-.947a2.814 2.814 0 0 0 1.628-.486l.279-.243-.571-.5c-.377-.328-.583-.6-.583-.777a3.479 3.479 0 0 1 .741-1.166c1.409-1.713 1.288-1.6 1.591-1.433a24.529 24.529 0 0 1 2.5 1.81c.255.243.255.267.073.62a24.19 24.19 0 0 1-2.1 2.927c-.462.522-.571.583-1.579.814-1.274.304-2.464.341-2.683.073z" transform="translate(-1193.052 -196.271)" style="fill:#fff"/>
    <path data-name="Path 57" d="M1107 150.6a7.211 7.211 0 0 1-2.138-1.385 3.623 3.623 0 0 1-1.664-2.417c-.255-1-.243-1.579.061-1.737a10.607 10.607 0 0 1 2.976-.061c.717.134.8.243.729.9a1.367 1.367 0 0 0 .814 1.579.94.94 0 0 0 .826.012c.644-.267.692-.377 3-7.167.668-1.944.777-2.114 1.373-2a18.958 18.958 0 0 1 2.9.947c.267.231.085 1.008-1.081 4.494-1.239 3.729-1.628 4.592-2.466 5.5a4.106 4.106 0 0 1-2.94 1.385 4.874 4.874 0 0 1-2.39-.05z" transform="translate(-970.601 -106.601)" style="fill:#fff"/>
    <path data-name="Path 58" d="M659.05 133.866c-1.081-.34-1.482-.668-2.879-2.357-1.7-2.029-1.944-2.782-1.628-4.932a9.473 9.473 0 0 1 .85-3.377 10.762 10.762 0 0 1 3.316-2.259 8.025 8.025 0 0 1 4.142-1.057l1.13-.085 1.166 1.154c.826.8 1.142 1.2 1.093 1.336a13.11 13.11 0 0 1-3.268 1.664 2.7 2.7 0 0 1-.887-.364 2.377 2.377 0 0 0-2.5-.036c-.9.462-1.117.923-1.178 2.49a5.119 5.119 0 0 0 1.045 3.559c.814 1.178 1.069 1.336 2.126 1.336a2.848 2.848 0 0 0 1.567-.34c1.166-.571 1.98-1.773 1.506-2.247-.17-.17-.292-.158-1.3.146-1.3.389-1.288.4-1.676-.765-.3-.923-.316-1.263-.085-1.458a33.342 33.342 0 0 1 5.6-1.64 1.709 1.709 0 0 1 .413.717 42.689 42.689 0 0 1 1.227 4.288c0 .352-2.284 2.393-3.608 3.219a8.16 8.16 0 0 1-3.073.984 9.072 9.072 0 0 1-3.1.024z" transform="translate(-576.499 -90.356)" style="fill:#fff"/>
    <path data-name="Path 59" d="M967.531 111.192c-1.215-.17-1.47-.243-1.713-.5-.292-.292-.474-.62-2.672-4.859a16.079 16.079 0 0 0-1.336-2.332c-.121-.049-.182.1-.255.559-.036.352-.231 1.822-.413 3.28a20.373 20.373 0 0 1-.474 2.782c-.1.1-.559.1-1.628-.012-2.077-.207-2.041-.194-2.041-.607 0-.182.279-2.527.607-5.187s.68-5.333.753-5.94a9.465 9.465 0 0 1 .243-1.385l.109-.292 1.494.085a10.678 10.678 0 0 1 1.871.207c.328.109.559.5 2.15 3.608.984 1.919 1.871 3.571 1.956 3.668.134.134.207.134.316.024s.79-4.3 1.069-6.547a13.376 13.376 0 0 1 3.583.462 11.05 11.05 0 0 1-.158 2.575c-.425 3.7-1.348 10.325-1.458 10.434-.181.185-.545.185-2.003-.023z" transform="translate(-842.32 -70.062)" style="fill:#fff"/>
    <path data-name="Path 60" d="M807.773 110.857c-.134-.134-.085-.328.62-2.709.231-.8 1.008-3.45 1.725-5.891s1.348-4.519 1.4-4.628c.182-.316.68-.437 2.539-.6l1.743-.129.267.279a58.726 58.726 0 0 1 3.073 6.292c.547 1.19 2.162 4.64 2.527 5.393a3.172 3.172 0 0 1 .292.814c0 .231-.389.3-2.49.425-1.3.073-1.36.073-1.664-.207a2.823 2.823 0 0 1-.522-.875c-.267-.741-.607-.972-1.3-.875-.292.036-1.178.121-1.98.17-1.7.134-1.761.17-2.041 1.421a8.789 8.789 0 0 1-.243.862 14.971 14.971 0 0 1-3.946.258zm7.883-5.77c.109-.109.049-.437-.316-1.446a8.6 8.6 0 0 0-1.13-2.6 10.349 10.349 0 0 0-.887 2.9c-.231 1.008-.243 1.166-.085 1.275a5.4 5.4 0 0 0 2.417-.134z" transform="translate(-711.168 -70.238)" style="fill:#fff"/>
</svg>
